<?xml version="1.0" encoding="UTF-8" standalone="no"?>
<!-- Generator: Adobe Illustrator 21.0.2, SVG Export Plug-In . SVG Version: 6.00 Build 0)  -->

<svg
   version="1.1"
   x="0px"
   y="0px"
   viewBox="0 0 175.693 195.526"
   style="enable-background:new 0 0 175.693 195.526;"
   xml:space="preserve"
   id="svg118"
   sodipodi:docname="liderazgo.svg"
   inkscape:version="1.1 (c68e22c387, 2021-05-23)"
   xmlns:inkscape="http://www.inkscape.org/namespaces/inkscape"
   xmlns:sodipodi="http://sodipodi.sourceforge.net/DTD/sodipodi-0.dtd"
   xmlns="http://www.w3.org/2000/svg"
   xmlns:svg="http://www.w3.org/2000/svg"><defs
   id="defs122" /><sodipodi:namedview
   id="namedview120"
   pagecolor="#505050"
   bordercolor="#eeeeee"
   borderopacity="1"
   inkscape:pageshadow="0"
   inkscape:pageopacity="0"
   inkscape:pagecheckerboard="0"
   showgrid="false"
   inkscape:zoom="4.4648793"
   inkscape:cx="87.908311"
   inkscape:cy="97.874986"
   inkscape:window-width="3840"
   inkscape:window-height="2050"
   inkscape:window-x="2928"
   inkscape:window-y="-12"
   inkscape:window-maximized="1"
   inkscape:current-layer="g114" />
<g
   id="_x34_4">
	<g
   id="g114">
		
		
		
		
		
		
		
		
		
		
		
		<g
   id="g48"
   style="fill:#ffffff"
   transform="matrix(1.0681289,0,0,1.1016438,-9.9171691,13.05286)">
			<path
   style="fill:#ffffff"
   d="m 105.232,83.61 c -0.648,-0.838 -1.996,-1.474 -3.064,-1.045 -0.849,0.342 -1.571,0.678 -2.219,1.353 -1.132,1.179 -1.259,3.258 0,4.414 1.317,1.209 3.096,1.147 4.414,0 0.453,-0.394 0.844,-0.934 1.097,-1.485 0.503,-1.095 0.544,-2.237 -0.228,-3.237 z"
   id="path46" />
		</g>
		<g
   id="g52"
   style="fill:#ffffff"
   transform="matrix(1.0681289,0,0,1.1016438,-16.255341,7.5196294)">
			<path
   style="fill:#ffffff"
   d="m 131.865,97.588 c -7.28,0 -14.32,-1.81 -20.361,-5.237 -1.053,-0.596 -1.422,-1.935 -0.825,-2.987 0.599,-1.05 1.933,-1.421 2.987,-0.824 5.382,3.053 11.676,4.666 18.199,4.666 18.551,0 33.691,-11.378 38.667,-28.664 -2.765,0.514 -5.575,0.773 -8.394,0.773 -12.618,0 -18.465,-3.899 -24.655,-8.026 -7.641,-5.096 -16.301,-10.87 -41.193,-11.227 -1.156,-0.017 -2.1,-0.927 -2.157,-2.081 -10e-4,-0.037 -0.004,-0.157 -0.004,-0.194 0,-1.153 0.218,-2.228 0.649,-3.195 0.923,-2.078 2.511,-3.481 4.191,-4.963 3.586,-3.167 7.652,-6.755 7.652,-18.959 0,-11.401 -10.652,-12.287 -13.916,-12.287 -6.107,0 -12.632,2.964 -17.551,7.79 1.402,0.029 2.743,0.044 4.043,0.05 0.836,0.003 1.598,0.482 1.963,1.234 0.365,0.753 0.27,1.648 -0.244,2.305 -1.615,2.067 -3.265,4.986 -3.265,10.962 0,7.506 6.26,10.772 8.952,11.826 0.839,0.33 1.516,1.191 1.516,2.093 0,2.837 -2.528,8.204 -12.097,8.204 -0.626,0 -1.257,-0.014 -1.887,-0.028 -0.601,-0.013 -1.201,-0.027 -1.802,-0.027 -6.454,0 -13.4,3.518 -13.4,11.241 0,4.497 1.672,12.106 7.94,12.106 0.639,0 1.247,0.28 1.663,0.765 0.417,0.485 0.599,1.128 0.502,1.76 -0.345,2.245 -1.663,3.829 -2.825,5.227 -0.883,1.061 -1.651,1.984 -1.699,2.872 0.434,0.069 1.261,0.138 2.835,0.138 3.706,0 4.408,-1.295 4.408,-3.686 0,-2.571 -1.679,-5.318 -3.302,-7.973 -1.645,-2.69 -3.197,-5.23 -3.197,-7.853 0,-4.984 4.391,-9.12 9.997,-9.415 1.211,-0.058 2.24,0.864 2.304,2.073 0.064,1.208 -0.865,2.24 -2.073,2.304 -3.224,0.17 -5.846,2.431 -5.846,5.039 0,1.39 1.298,3.514 2.553,5.566 1.849,3.026 3.946,6.455 3.946,10.26 0,3.013 -1.143,8.069 -8.79,8.069 -3.384,0 -7.22,0 -7.22,-4.431 0,-2.501 1.442,-4.234 2.715,-5.763 0.292,-0.354 0.573,-0.69 0.824,-1.02 -6.241,-1.865 -9.119,-9.176 -9.119,-16.036 0,-9.053 7.478,-15.624 17.782,-15.624 0.633,0 1.267,0.014 1.9,0.029 0.598,0.013 1.196,0.027 1.789,0.027 4.467,0 6.478,-1.424 7.27,-2.605 C 79.592,40 73.267,35.529 73.267,26.726 73.267,22.141 74.14,18.933 75.271,16.56 73.72,16.53 72.1,16.486 70.384,16.426 69.571,16.398 68.839,15.921 68.485,15.188 68.132,14.455 68.214,13.586 68.699,12.933 74.519,5.076 83.941,0 92.705,0 c 11.116,0 18.298,6.544 18.298,16.669 0,14.181 -5.28,18.842 -9.134,22.244 -1.17,1.033 -2.14,1.887 -2.745,2.829 24.077,0.758 32.939,6.665 40.789,11.9 6.109,4.073 10.933,7.29 22.224,7.29 3.648,0 7.278,-0.479 10.795,-1.425 0.736,-0.198 1.516,0 2.07,0.519 0.554,0.519 0.797,1.288 0.646,2.033 -4.252,20.919 -22.258,35.529 -43.783,35.529 z"
   id="path50" />
		</g>
		<g
   id="g56"
   style="fill:#ffffff"
   transform="matrix(1.0681289,0,0,1.1016438,-10.395628,12.559387)">
			<path
   style="fill:#ffffff"
   d="m 68.308,122.112 c -3.541,0 -5.919,-2.027 -5.919,-5.043 0,-0.235 0.039,-0.468 0.113,-0.692 0.098,-0.298 9.953,-30.246 11.265,-60.895 0.053,-1.208 1.046,-2.14 2.284,-2.096 1.208,0.053 2.147,1.074 2.096,2.284 -1.247,29.102 -10.03,57.537 -11.328,61.599 0.213,0.411 1.086,0.461 1.489,0.461 2.972,0 9.566,-9.144 17.023,-29.22 0.422,-1.136 1.682,-1.709 2.817,-1.291 1.134,0.421 1.712,1.683 1.291,2.817 -7.904,21.284 -15.014,32.076 -21.131,32.076 z"
   id="path54" />
		</g>
		
		<g
   id="g64"
   style="fill:#ffffff"
   transform="matrix(1.0681289,0,0,1.1016438,-9.9171691,13.05286)">
			<path
   style="fill:#ffffff"
   d="m 102.333,90.563 c -2.962,0 -10.752,-3.385 -10.752,-11.007 0,-5.271 3.625,-8.35 6.823,-11.066 2.67,-2.267 4.976,-4.225 4.976,-7.053 0,-0.599 -0.114,-1.208 -0.348,-1.86 -0.408,-1.14 0.184,-2.394 1.322,-2.803 1.144,-0.407 2.394,0.183 2.803,1.322 0.401,1.12 0.605,2.244 0.605,3.341 0,4.856 -3.465,7.798 -6.521,10.394 -2.832,2.405 -5.278,4.482 -5.278,7.725 0,4.799 5.425,6.625 6.37,6.625 0.3,0 2.93,-0.056 2.93,-1.996 0,-0.498 -0.202,-0.763 -0.829,-1.455 -0.679,-0.75 -1.706,-1.886 -1.706,-3.653 0,-0.989 0.391,-1.412 2.037,-3.198 2.476,-2.686 9.054,-9.823 9.054,-14.198 0,-1.529 -0.559,-2.954 -1.709,-4.36 -0.766,-0.937 -0.628,-2.317 0.308,-3.084 0.939,-0.765 2.317,-0.629 3.084,0.308 1.79,2.19 2.699,4.589 2.699,7.136 0,6.087 -6.899,13.571 -10.214,17.169 -0.194,0.21 -0.397,0.429 -0.581,0.63 0.094,0.109 0.194,0.218 0.277,0.311 0.782,0.863 1.961,2.168 1.961,4.395 10e-4,3.696 -3.074,6.377 -7.311,6.377 z"
   id="path62" />
		</g>
		
		<g
   id="g72"
   style="fill:#ffffff"
   transform="matrix(1.0681289,0,0,1.1016438,-9.9171691,13.05286)">
			<path
   style="fill:#ffffff"
   d="m 105.966,122.287 c -8.093,0 -12.447,-12.554 -15.945,-22.641 -1.282,-3.7 -2.738,-7.896 -3.622,-8.78 -0.856,-0.856 -0.856,-2.243 0,-3.098 0.856,-0.856 2.242,-0.856 3.098,0 1.522,1.522 2.705,4.793 4.665,10.444 2.539,7.324 6.782,19.557 11.721,19.692 0.003,-0.218 0.001,-0.464 0,-0.672 l -10e-4,-0.472 c 0,-5.676 -1.457,-11.333 -3,-17.321 -0.649,-2.524 -1.322,-5.133 -1.867,-7.722 -0.25,-1.184 0.508,-2.347 1.692,-2.596 1.186,-0.24 2.348,0.508 2.596,1.692 0.525,2.495 1.185,5.056 1.823,7.534 1.544,5.989 3.139,12.183 3.139,18.414 l 0.001,0.444 c 0.01,1.408 0.019,2.863 -1.086,3.974 -1.103,1.108 -2.692,1.108 -3.214,1.108 z"
   id="path70" />
		</g>
		
		
		
		<g
   id="g88"
   style="fill:#ffffff"
   transform="matrix(0.90488432,0,0,0.62230965,6.5617876,71.771003)">
			<path
   style="fill:#ffffff"
   d="m 2.193,186.71 c -0.166,0 -0.334,-0.019 -0.504,-0.059 -1.178,-0.277 -1.907,-1.456 -1.631,-2.635 4.715,-20.039 12.599,-21.919 20.271,-22.127 3.644,-0.098 4.111,-0.111 4.111,-3.605 0,-0.758 -0.057,-1.551 -0.113,-2.354 -0.064,-0.923 -0.127,-1.857 -0.127,-2.769 0,-0.033 0.003,-0.161 0.004,-0.194 0.046,-1.02 0.792,-1.873 1.797,-2.056 3.815,-0.693 7.629,-0.782 10.527,-0.782 0.986,0 1.971,0.011 2.954,0.026 16.604,-31.129 21.407,-32.211 38.42,-31.718 2.014,0.058 4.297,0.124 6.785,0.124 26.4,0 28.96,0.755 30.448,8.969 0.439,2.422 0.974,5.378 3.395,9.399 3.124,-0.867 6.311,-1.663 9.407,-2.436 2.456,-0.615 4.912,-1.228 7.344,-1.877 0.655,-0.177 1.362,-0.036 1.903,0.382 0.541,0.417 0.856,1.061 0.853,1.743 -0.007,1.852 -0.058,3.769 -0.111,5.713 -0.059,2.129 -0.117,4.29 -0.117,6.434 0,16.918 6.317,22.946 12.227,22.946 1.305,0 2.726,-0.345 4.23,-0.712 1.672,-0.408 3.401,-0.829 5.201,-0.829 7.061,0 9.615,6.535 11.305,10.86 0.469,1.204 0.914,2.34 1.367,3.17 0.58,1.063 0.188,2.394 -0.873,2.973 -1.061,0.583 -2.394,0.19 -2.973,-0.873 -0.586,-1.076 -1.08,-2.338 -1.604,-3.675 -1.846,-4.728 -3.445,-8.073 -7.223,-8.073 -1.274,0 -2.678,0.342 -4.164,0.705 -1.689,0.411 -3.435,0.836 -5.267,0.836 -8.03,0 -16.609,-7.18 -16.609,-27.328 0,-2.183 0.06,-4.385 0.118,-6.552 0.024,-0.927 0.05,-1.846 0.07,-2.756 -1.535,0.394 -3.074,0.779 -4.615,1.164 -3.583,0.896 -7.288,1.822 -10.836,2.843 -0.92,0.267 -1.899,-0.096 -2.428,-0.887 -3.659,-5.472 -4.414,-9.633 -4.912,-12.388 -0.522,-2.883 -0.632,-3.482 -2.89,-4.14 -3.534,-1.027 -11.2,-1.228 -23.247,-1.228 -2.551,0 -4.868,-0.067 -6.91,-0.125 -15.357,-0.441 -18.56,-0.536 -35.053,30.575 -0.388,0.729 -1.148,1.156 -1.973,1.166 -1.405,-0.024 -2.813,-0.047 -4.223,-0.047 -2.227,0 -5.026,0.054 -7.876,0.422 0.014,0.231 0.031,0.462 0.047,0.693 0.063,0.906 0.123,1.802 0.123,2.656 0,7.759 -4.84,7.89 -8.374,7.986 -5.253,0.143 -11.789,0.319 -16.126,18.751 -0.234,1.009 -1.134,1.689 -2.128,1.689 z"
   id="path86" />
		</g>
		
		
		
		
		
		
	</g>
</g>
<g
   id="Layer_1">
</g>
</svg>
