<?xml version="1.0" encoding="UTF-8" standalone="no"?>
<!-- Generator: Adobe Illustrator 21.0.2, SVG Export Plug-In . SVG Version: 6.00 Build 0)  -->

<svg
   version="1.1"
   x="0px"
   y="0px"
   viewBox="0 0 222.186 206.037"
   style="enable-background:new 0 0 222.186 206.037;"
   xml:space="preserve"
   id="svg104"
   sodipodi:docname="coaching.svg"
   inkscape:version="1.1 (c68e22c387, 2021-05-23)"
   xmlns:inkscape="http://www.inkscape.org/namespaces/inkscape"
   xmlns:sodipodi="http://sodipodi.sourceforge.net/DTD/sodipodi-0.dtd"
   xmlns="http://www.w3.org/2000/svg"
   xmlns:svg="http://www.w3.org/2000/svg"><defs
   id="defs108" /><sodipodi:namedview
   id="namedview106"
   pagecolor="#505050"
   bordercolor="#eeeeee"
   borderopacity="1"
   inkscape:pageshadow="0"
   inkscape:pageopacity="0"
   inkscape:pagecheckerboard="0"
   showgrid="false"
   inkscape:zoom="4.237103"
   inkscape:cx="116.35308"
   inkscape:cy="98.062285"
   inkscape:window-width="2005"
   inkscape:window-height="1635"
   inkscape:window-x="4552"
   inkscape:window-y="170"
   inkscape:window-maximized="0"
   inkscape:current-layer="g98" />
<g
   id="_x31_03">
	<g
   id="g100">
		
		<g
   id="g98">
			<g
   id="g50"
   style="fill:#ffffff"
   transform="matrix(0.93119709,0,0,0.93119709,7.734794,12.508547)">
				<path
   style="fill:#ffffff"
   d="m 37.249,135.75 c -0.631,0 -1.237,-0.277 -1.65,-0.766 -1.484,-1.757 -2.992,-3.519 -4.509,-5.29 C 15.806,111.841 0,93.38 0,69.61 0,55.965 6.087,44.169 16.729,37.118 24.879,12.488 48.686,0 87.504,0 c 37.606,0 52.421,6.455 62.828,13.431 0.794,0.531 1.143,1.52 0.861,2.433 -0.283,0.912 -1.078,1.54 -2.085,1.52 l -1.23,-0.006 c -4.253,0 -8.264,0.192 -12.115,0.582 8.828,4.703 17.893,11.43 27.033,20.07 0.63,0.595 0.843,1.51 0.54,2.323 -0.303,0.813 -1.063,1.365 -1.929,1.403 -22.054,0.96 -42.534,4.989 -60.884,11.976 -7.903,18.18 -7.888,27.153 -7.873,36.644 l 10e-4,0.314 c 0.001,1.049 -0.751,1.947 -1.784,2.13 -4.199,0.741 -8.419,1.668 -12.733,2.631 -0.672,0.153 -1.377,-0.03 -1.896,-0.484 -0.518,-0.455 -0.788,-1.129 -0.726,-1.816 0.091,-1.006 0.195,-2.326 0.195,-3.622 0,-5.496 -4.413,-8.494 -6.68,-8.494 -8.023,0 -12.933,6.528 -12.933,10.083 0,0.468 0.031,0.936 0.06,1.404 0.035,0.558 0.069,1.116 0.069,1.674 0.02,1.062 2.725,6.955 10.166,11.855 0.654,0.432 1.024,1.184 0.965,1.966 -0.059,0.782 -0.537,1.47 -1.249,1.798 -12.416,5.724 -21.974,14.501 -26.912,24.715 -0.318,0.659 -0.949,1.111 -1.674,1.203 -0.09,0.011 -0.181,0.017 -0.27,0.017 z M 87.504,4.318 c -37.107,0 -59.615,11.723 -66.898,34.843 -0.153,0.486 -0.474,0.903 -0.905,1.176 C 9.925,46.524 4.318,57.194 4.318,69.61 c 0,22.174 15.278,40.019 30.053,57.275 0.824,0.962 1.645,1.922 2.461,2.879 5.161,-8.969 13.591,-16.726 24.211,-22.272 -6.216,-5.01 -9.138,-10.665 -9.138,-13.296 0,-0.468 -0.031,-0.936 -0.06,-1.404 -0.035,-0.558 -0.069,-1.116 -0.069,-1.674 0,-5.871 6.72,-14.401 17.251,-14.401 5.192,0 10.998,5.479 10.998,12.812 0,0.364 -0.007,0.727 -0.019,1.083 2.794,-0.614 5.559,-1.2 8.324,-1.719 0.007,-9.219 0.412,-19.16 8.601,-37.725 0.231,-0.524 0.662,-0.935 1.196,-1.142 17.57,-6.801 37.04,-10.932 57.945,-12.304 -9.759,-8.673 -19.355,-15.033 -28.576,-18.936 -0.882,-0.373 -1.413,-1.283 -1.304,-2.234 0.109,-0.951 0.831,-1.717 1.775,-1.881 4.32,-0.751 8.775,-1.235 13.486,-1.461 C 131.634,8.249 116.755,4.318 87.504,4.318 Z"
   id="path48" />
			</g>
			<g
   id="g54"
   style="fill:#ffffff"
   transform="matrix(0.93119709,0,0,0.93119709,7.734794,12.508547)">
				<path
   style="fill:#ffffff"
   d="m 27.39,158.452 c -0.125,0 -0.251,-0.011 -0.378,-0.034 -1.175,-0.207 -1.958,-1.327 -1.751,-2.501 1.095,-6.205 3.655,-12.101 6.13,-17.803 1.157,-2.664 2.249,-5.179 3.207,-7.733 0.419,-1.116 1.666,-1.682 2.78,-1.263 1.116,0.418 1.682,1.663 1.263,2.78 -0.996,2.656 -2.161,5.341 -3.289,7.936 -2.376,5.472 -4.833,11.13 -5.839,16.834 -0.185,1.047 -1.096,1.784 -2.123,1.784 z"
   id="path52" />
			</g>
			<g
   id="g58"
   style="fill:#ffffff"
   transform="matrix(0.93119709,0,0,0.93119709,7.734794,12.508547)">
				<path
   style="fill:#ffffff"
   d="m 123.98,77.156 c -0.905,0 -1.747,-0.572 -2.048,-1.477 -0.377,-1.131 0.234,-2.354 1.365,-2.731 4.003,-1.335 8.281,-1.95 12.814,-1.816 0.113,-0.389 0.23,-0.779 0.35,-1.179 0.774,-2.568 1.574,-5.223 1.574,-9.618 0,-7.684 -3.438,-13.494 -4.898,-14.854 -0.548,-0.003 -1.096,-0.214 -1.515,-0.632 -0.843,-0.843 -0.843,-2.21 0,-3.053 0.482,-0.483 1.113,-0.748 1.776,-0.748 3.827,0 8.955,9.536 8.955,19.288 0,5.031 -0.934,8.13 -1.758,10.864 -0.277,0.92 -0.539,1.789 -0.737,2.657 -0.238,1.038 -1.188,1.74 -2.259,1.673 -4.599,-0.33 -8.946,0.186 -12.936,1.515 -0.227,0.075 -0.457,0.111 -0.683,0.111 z m 8.859,-31.908 z"
   id="path56" />
			</g>
			<g
   id="g62"
   style="fill:#ffffff"
   transform="matrix(0.93119709,0,0,0.93119709,7.734794,12.508547)">
				<path
   style="fill:#ffffff"
   d="m 95.396,160.481 c -2.22,0 -21.902,-0.221 -29.545,-7.864 -0.843,-0.843 -0.843,-2.21 0,-3.053 0.843,-0.843 2.21,-0.843 3.053,0 4.534,4.534 16.911,6.599 26.492,6.599 19.776,0 31.209,-10.771 34.951,-32.928 0.169,-1 1.01,-1.747 2.022,-1.796 7.314,-0.362 13.369,-2.418 14.262,-4.726 -11.345,-14.117 -13.726,-24.237 -13.726,-30.242 0,-1.257 0.044,-2.517 0.089,-3.777 0.043,-1.205 0.087,-2.408 0.087,-3.605 0,-1.964 -0.123,-3.535 -0.387,-4.945 -0.22,-1.172 0.552,-2.3 1.725,-2.52 1.18,-0.214 2.3,0.554 2.519,1.726 0.315,1.678 0.461,3.501 0.461,5.739 0,1.248 -0.044,2.503 -0.089,3.759 -0.043,1.208 -0.087,2.417 -0.087,3.623 0,5.313 2.218,14.405 12.784,27.55 0.746,0.929 1.055,1.313 1.055,2.108 0,7.234 -11.722,9.055 -16.759,9.503 -4.412,23.126 -17.495,34.849 -38.907,34.849 z"
   id="path60" />
			</g>
			<g
   id="g66"
   style="fill:#ffffff"
   transform="matrix(0.93119709,0,0,0.93119709,7.734794,12.508547)">
				<path
   style="fill:#ffffff"
   d="m 64.783,173.973 c -0.411,0 -0.827,-0.117 -1.196,-0.363 -0.992,-0.661 -1.26,-2.002 -0.599,-2.994 1.572,-2.357 2.755,-4.945 4.008,-7.684 1.269,-2.772 2.579,-5.639 4.342,-8.282 0.661,-0.993 1.999,-1.262 2.994,-0.599 0.992,0.661 1.26,2.002 0.599,2.994 -1.572,2.357 -2.755,4.944 -4.008,7.683 -1.268,2.773 -2.579,5.639 -4.342,8.283 -0.416,0.624 -1.1,0.962 -1.798,0.962 z"
   id="path64" />
			</g>
			<g
   id="g70"
   style="fill:#ffffff"
   transform="matrix(0.93119709,0,0,0.93119709,7.734794,12.508547)">
				<path
   style="fill:#ffffff"
   d="m 61.753,202.384 c -0.581,0 -1.142,-0.235 -1.552,-0.658 -12.821,-13.25 -24.71,-21.624 -37.414,-26.351 -1.118,-0.415 -1.687,-1.659 -1.271,-2.776 0.415,-1.118 1.66,-1.69 2.776,-1.271 12.65,4.707 24.46,12.787 36.986,25.334 0.843,-1.483 1.694,-2.957 2.545,-4.428 2.362,-4.086 4.794,-8.293 6.933,-12.566 l -50.23,-23.956 c -1.077,-0.514 -1.533,-1.802 -1.02,-2.878 0.514,-1.075 1.805,-1.531 2.878,-1.02 l 52.198,24.894 c 1.076,0.513 1.533,1.801 1.02,2.877 -2.426,5.096 -5.28,10.034 -8.041,14.81 -1.317,2.278 -2.638,4.562 -3.922,6.876 -0.332,0.598 -0.927,1.004 -1.605,1.094 -0.093,0.013 -0.187,0.019 -0.281,0.019 z"
   id="path68" />
			</g>
			<g
   id="g74"
   style="fill:#ffffff"
   transform="matrix(0.93119709,0,0,0.93119709,7.734794,12.508547)">
				<path
   style="fill:#ffffff"
   d="m 127.193,93.357 c -2.242,0 -4.625,-1.883 -4.625,-5.373 0,-0.555 0.03,-1.045 0.086,-1.484 -0.634,0.502 -1.355,1.143 -2.172,1.96 -0.843,0.843 -2.21,0.843 -3.053,0 -0.843,-0.843 -0.843,-2.21 0,-3.053 3.398,-3.398 6.183,-4.981 8.766,-4.981 3.077,0 5.714,2.808 5.714,5.108 0,0.3 0.025,0.601 0.049,0.902 0.032,0.413 0.062,0.826 0.062,1.24 10e-4,2.793 -1.805,5.681 -4.827,5.681 z m 0.401,-7.638 c -0.567,0.641 -0.707,0.9 -0.707,2.265 0,0.718 0.243,1.027 0.331,1.058 0.134,-0.06 0.485,-0.607 0.485,-1.365 0,-0.302 -0.025,-0.604 -0.049,-0.905 -0.028,-0.352 -0.053,-0.703 -0.06,-1.053 z"
   id="path72" />
			</g>
			
			<g
   id="g92"
   style="fill:#ffffff"
   transform="matrix(0.93119709,0,0,0.93119709,7.734794,12.508547)">
				<g
   id="g82"
   style="fill:#ffffff">
					<path
   style="fill:#ffffff"
   d="m 144.741,83.096 c -0.479,0 -0.961,-0.158 -1.361,-0.484 -0.926,-0.752 -1.065,-2.112 -0.313,-3.037 0.324,-0.399 0.664,-0.793 1.013,-1.179 0.8,-0.885 2.167,-0.95 3.05,-0.148 0.883,0.801 0.95,2.167 0.148,3.049 -0.298,0.328 -0.585,0.663 -0.862,1.002 -0.425,0.525 -1.047,0.797 -1.675,0.797 z"
   id="path80" />
				</g>
				<g
   id="g86"
   style="fill:#ffffff">
					<path
   style="fill:#ffffff"
   d="m 168.902,106.153 c -0.098,0 -0.198,-0.006 -0.299,-0.02 -1.008,-0.139 -2.044,-0.386 -3.081,-0.736 -1.13,-0.38 -1.738,-1.604 -1.357,-2.735 0.379,-1.13 1.606,-1.739 2.735,-1.357 0.769,0.259 1.563,0.449 2.295,0.55 1.181,0.163 2.006,1.253 1.843,2.435 -0.149,1.081 -1.075,1.863 -2.136,1.863 z m 7.857,-1.995 c -0.7,0 -1.387,-0.34 -1.802,-0.966 -0.659,-0.994 -0.386,-2.334 0.607,-2.993 0.649,-0.43 1.281,-0.932 1.876,-1.493 0.868,-0.816 2.235,-0.775 3.052,0.093 0.817,0.869 0.775,2.235 -0.093,3.052 -0.773,0.727 -1.598,1.382 -2.449,1.947 -0.368,0.244 -0.782,0.36 -1.191,0.36 z m -17.275,-3.285 c -0.665,0 -1.321,-0.306 -1.744,-0.885 -0.685,-0.938 -1.217,-1.95 -1.581,-3.01 -0.387,-1.128 0.214,-2.356 1.342,-2.742 1.13,-0.387 2.356,0.215 2.742,1.342 0.222,0.648 0.552,1.275 0.982,1.862 0.703,0.963 0.494,2.314 -0.469,3.017 -0.383,0.281 -0.829,0.416 -1.272,0.416 z m 23.888,-5.335 c -0.214,0 -0.432,-0.032 -0.647,-0.1 -1.138,-0.357 -1.77,-1.569 -1.413,-2.707 0.237,-0.755 0.375,-1.486 0.409,-2.172 0.06,-1.191 1.066,-2.111 2.265,-2.048 1.191,0.06 2.108,1.073 2.048,2.264 -0.053,1.051 -0.255,2.144 -0.602,3.249 -0.29,0.923 -1.142,1.514 -2.06,1.514 z m -24.538,-5.154 c -0.319,0 -0.642,-0.071 -0.948,-0.221 -1.07,-0.524 -1.514,-1.817 -0.99,-2.889 0.481,-0.983 1.098,-1.91 1.834,-2.756 0.783,-0.9 2.147,-0.996 3.045,-0.213 0.9,0.782 0.996,2.146 0.213,3.045 -0.489,0.563 -0.898,1.176 -1.214,1.822 -0.374,0.768 -1.142,1.212 -1.94,1.212 z m 23.374,-5.624 c -0.84,0 -1.638,-0.493 -1.987,-1.315 -0.308,-0.723 -0.656,-1.43 -1.038,-2.103 -0.296,0.026 -0.593,0.053 -0.888,0.083 -1.174,0.115 -2.243,-0.748 -2.362,-1.935 -0.118,-1.186 0.748,-2.244 1.935,-2.362 0.943,-0.094 1.888,-0.17 2.832,-0.232 1.17,-0.072 2.217,0.824 2.295,2.015 0.008,0.129 0.005,0.257 -0.009,0.382 0.444,0.791 0.851,1.617 1.21,2.463 0.467,1.097 -0.044,2.365 -1.142,2.832 -0.277,0.116 -0.564,0.172 -0.846,0.172 z m -14.935,-1.077 c -0.879,0 -1.704,-0.54 -2.026,-1.413 -0.412,-1.12 0.161,-2.36 1.28,-2.773 0.883,-0.325 1.832,-0.625 2.822,-0.891 1.153,-0.303 2.336,0.373 2.646,1.524 0.309,1.152 -0.373,2.336 -1.524,2.646 -0.866,0.233 -1.691,0.493 -2.451,0.773 -0.247,0.091 -0.499,0.134 -0.747,0.134 z m 24.629,-2.692 c -0.898,-0.014 -1.761,-0.02 -2.625,-0.02 -1.193,0 -2.229,-0.966 -2.229,-2.159 0,-1.193 0.896,-2.159 2.089,-2.159 h 0.14 c 0.887,0 1.773,0.006 2.659,0.02 1.193,0.02 2.144,1.002 2.125,2.193 -0.019,1.181 -0.983,2.125 -2.159,2.125 z m -39.831,-4.244 c -0.728,0 -1.438,-0.368 -1.845,-1.034 -0.621,-1.018 -0.3,-2.346 0.718,-2.967 0.85,-0.519 1.728,-0.999 2.605,-1.426 1.072,-0.523 2.364,-0.075 2.886,0.998 0.521,1.072 0.074,2.364 -0.998,2.886 -0.755,0.367 -1.51,0.78 -2.244,1.228 -0.35,0.213 -0.739,0.315 -1.122,0.315 z m 23.436,-0.621 c -0.439,0 -0.881,-0.133 -1.264,-0.41 -0.654,-0.474 -1.348,-0.895 -2.061,-1.253 -1.065,-0.535 -1.496,-1.832 -0.962,-2.898 0.535,-1.065 1.831,-1.496 2.898,-0.961 0.92,0.462 1.813,1.005 2.656,1.614 0.966,0.699 1.182,2.05 0.484,3.015 -0.422,0.583 -1.082,0.893 -1.751,0.893 z M 162.39,73.009 c -1.072,0 -2.002,-0.798 -2.139,-1.889 -0.149,-1.183 0.689,-2.263 1.872,-2.412 0.975,-0.123 1.957,-0.186 2.917,-0.186 l 0.111,2.159 v 2.159 c -0.889,10e-4 -1.69,0.052 -2.488,0.152 -0.092,0.011 -0.183,0.017 -0.273,0.017 z"
   id="path84" />
				</g>
				<g
   id="g90"
   style="fill:#ffffff">
					<path
   style="fill:#ffffff"
   d="m 201.714,81.497 c -0.066,0 -0.131,-0.003 -0.198,-0.009 -0.47,-0.042 -0.939,-0.082 -1.407,-0.119 -1.189,-0.093 -2.077,-1.132 -1.985,-2.321 0.093,-1.189 1.128,-2.081 2.321,-1.985 0.486,0.038 0.973,0.079 1.462,0.125 1.188,0.108 2.063,1.158 1.955,2.345 -0.102,1.121 -1.044,1.964 -2.148,1.964 z"
   id="path88" />
				</g>
			</g>
			<g
   id="g96"
   style="fill:#ffffff"
   transform="matrix(0.93119709,0,0,0.93119709,7.734794,12.508547)">
				<path
   style="fill:#ffffff"
   d="m 208.544,91.728 c -0.288,0 -0.578,-0.058 -0.853,-0.176 -0.792,-0.341 -1.305,-1.12 -1.305,-1.983 v -0.573 c 0,-3.352 0.016,-6.701 0.032,-10.052 0.012,-2.462 0.023,-4.925 0.029,-7.39 0.002,-0.864 0.519,-1.645 1.316,-1.983 0.796,-0.339 1.716,-0.169 2.34,0.431 3.354,3.224 7.084,6.157 11.088,8.716 0.612,0.392 0.986,1.064 0.996,1.791 0.009,0.727 -0.348,1.41 -0.949,1.817 -4.461,3.016 -8.127,5.899 -11.208,8.812 -0.411,0.386 -0.944,0.59 -1.486,0.59 z m 2.203,-15.339 c -0.004,0.859 -0.008,1.717 -0.012,2.576 -0.009,1.938 -0.018,3.874 -0.025,5.812 1.682,-1.394 3.504,-2.79 5.483,-4.205 -1.883,-1.318 -3.702,-2.715 -5.446,-4.183 z"
   id="path94" />
			</g>
		</g>
	</g>
</g>
<g
   id="Layer_1">
</g>
</svg>
