<?xml version="1.0" encoding="UTF-8" standalone="no"?>
<!-- Generator: Adobe Illustrator 21.0.2, SVG Export Plug-In . SVG Version: 6.00 Build 0)  -->

<svg
   version="1.1"
   x="0px"
   y="0px"
   viewBox="0 0 219.233 193.723"
   style="enable-background:new 0 0 219.233 193.723;"
   xml:space="preserve"
   id="svg168"
   sodipodi:docname="equipo.svg"
   inkscape:version="1.1 (c68e22c387, 2021-05-23)"
   xmlns:inkscape="http://www.inkscape.org/namespaces/inkscape"
   xmlns:sodipodi="http://sodipodi.sourceforge.net/DTD/sodipodi-0.dtd"
   xmlns="http://www.w3.org/2000/svg"
   xmlns:svg="http://www.w3.org/2000/svg"><defs
   id="defs172" /><sodipodi:namedview
   id="namedview170"
   pagecolor="#505050"
   bordercolor="#eeeeee"
   borderopacity="1"
   inkscape:pageshadow="0"
   inkscape:pageopacity="0"
   inkscape:pagecheckerboard="0"
   showgrid="false"
   inkscape:zoom="4.469228"
   inkscape:cx="109.52675"
   inkscape:cy="96.884741"
   inkscape:window-width="3840"
   inkscape:window-height="2050"
   inkscape:window-x="2928"
   inkscape:window-y="-12"
   inkscape:window-maximized="1"
   inkscape:current-layer="g162" />
<g
   id="_x36_0">
	<g
   id="g164">
		
		
		
		
		
		
		
		
		
		
		
		
		
		
		<g
   id="g162"
   transform="matrix(0.93069931,0,0,0.93069931,8.5990789,7.242496)"
   style="fill:#ffffff">
			<g
   id="g60"
   style="fill:#ffffff">
				<path
   style="fill:#ffffff"
   d="M 2.159,155.219 C 0.967,155.219 0,154.252 0,153.06 c 0,-25.546 17.032,-41.747 24.222,-41.747 0.694,0 1.345,0.103 1.92,0.193 0.402,0.063 0.783,0.122 1.034,0.122 0.254,-0.106 0.897,-1.186 0.897,-2.7 0,-3.157 -0.789,-3.393 -3.4,-4.176 -5.826,-1.747 -11.055,-4.785 -11.055,-22.518 0,-2.943 0.122,-5.887 0.24,-8.733 l 0.11,-2.762 c 0.045,-1.191 1.013,-2.12 2.238,-2.078 1.192,0.044 2.121,1.046 2.078,2.238 l -0.111,2.782 c -0.117,2.801 -0.236,5.698 -0.236,8.553 0,15.989 4.238,17.261 7.978,18.381 2.733,0.821 6.477,1.943 6.477,8.313 0,3.402 -1.827,7.018 -5.215,7.018 -0.589,0 -1.155,-0.089 -1.702,-0.174 -0.461,-0.073 -0.895,-0.141 -1.252,-0.141 -4.262,0 -19.904,13.626 -19.904,37.429 -0.001,1.192 -0.968,2.159 -2.16,2.159 z"
   id="path58" />
			</g>
			<g
   id="g64"
   style="fill:#ffffff">
				<path
   style="fill:#ffffff"
   d="m 30.483,93.85 c -2.772,0 -4.709,-2.54 -4.709,-6.178 0,-2.045 0.644,-4.241 1.912,-6.524 0.581,-1.043 1.896,-1.417 2.936,-0.839 1.043,0.579 1.418,1.895 0.839,2.936 -0.895,1.611 -1.369,3.142 -1.369,4.426 0,1.054 0.319,1.766 0.481,1.896 1.175,-0.231 2.269,0.509 2.499,1.678 0.232,1.169 -0.566,2.286 -1.736,2.517 -0.294,0.06 -0.579,0.088 -0.853,0.088 z"
   id="path62" />
			</g>
			<g
   id="g68"
   style="fill:#ffffff">
				<path
   style="fill:#ffffff"
   d="m 55.435,124.96 c -5.354,0 -11.086,-4.753 -11.086,-11.828 0,-6.893 3.452,-11.401 6.789,-15.761 3.619,-4.727 7.363,-9.616 7.363,-18.211 0,-15.84 -12.884,-23.055 -24.854,-23.055 -8.278,0 -16.7,3.195 -22.527,8.545 -0.877,0.805 -2.242,0.751 -3.05,-0.129 -0.807,-0.879 -0.749,-2.245 0.129,-3.05 6.604,-6.064 16.116,-9.683 25.448,-9.683 20.043,0 29.173,14.19 29.173,27.373 0,10.059 -4.384,15.784 -8.252,20.837 -3.165,4.135 -5.899,7.706 -5.899,13.136 0,4.835 4.002,7.51 6.768,7.51 1.192,0 2.159,0.967 2.159,2.159 -0.002,1.19 -0.969,2.157 -2.161,2.157 z"
   id="path66" />
			</g>
			<g
   id="g72"
   style="fill:#ffffff">
				<path
   style="fill:#ffffff"
   d="m 59.056,86.683 c -0.517,0 -1.036,-0.184 -1.449,-0.558 C 48.721,78.085 45.901,73.41 45.228,70.47 c -1.822,0.252 -4.886,0.524 -9.99,0.524 -7.829,0 -15.925,-3.047 -22.795,-8.581 -0.928,-0.748 -1.074,-2.107 -0.326,-3.036 0.746,-0.926 2.109,-1.075 3.036,-0.326 6.105,4.917 13.237,7.626 20.085,7.626 7.278,0 10.022,-0.559 11.055,-0.77 0.623,-0.127 1.671,-0.337 2.543,0.541 0.569,0.576 0.759,1.326 0.565,2.228 -0.077,0.36 -0.423,3.819 11.105,14.247 0.884,0.8 0.952,2.165 0.152,3.05 -0.427,0.471 -1.014,0.71 -1.602,0.71 z"
   id="path70" />
			</g>
			<g
   id="g76"
   style="fill:#ffffff">
				<path
   style="fill:#ffffff"
   d="m 35.262,129.985 c -4.488,0 -6.837,-4.234 -6.837,-8.417 0,-0.956 0.122,-1.871 0.365,-2.721 0.326,-1.148 1.525,-1.809 2.668,-1.484 1.147,0.326 1.812,1.521 1.484,2.668 -0.131,0.458 -0.2,0.991 -0.2,1.538 0,1.584 0.685,4.099 2.519,4.099 4.238,0 4.567,-4.57 4.567,-5.97 0,-1.192 0.967,-2.159 2.159,-2.159 1.192,0 2.159,0.967 2.159,2.159 10e-4,6.153 -3.57,10.287 -8.884,10.287 z"
   id="path74" />
			</g>
			<g
   id="g80"
   style="fill:#ffffff">
				<path
   style="fill:#ffffff"
   d="m 33.793,169.687 c -0.06,0 -0.122,-0.003 -0.183,-0.008 -0.652,-0.055 -1.242,-0.402 -1.608,-0.945 -2.745,-4.074 -5.697,-8.004 -8.773,-11.678 -0.437,-0.523 -0.602,-1.221 -0.444,-1.885 l 0.647,-2.721 c 1.98,-8.33 3.853,-16.199 5.58,-24.405 0.245,-1.167 1.393,-1.916 2.558,-1.667 1.167,0.246 1.913,1.39 1.667,2.558 -1.739,8.26 -3.617,16.155 -5.606,24.513 l -0.396,1.671 c 2.383,2.894 4.689,5.933 6.882,9.068 1.179,-1.091 2.394,-2.12 3.583,-3.126 1.206,-1.022 2.444,-2.071 3.614,-3.163 -3.315,-8.676 -5.119,-18.544 -5.365,-29.359 -0.027,-1.192 0.918,-2.18 2.11,-2.208 1.23,-10e-4 2.181,0.919 2.208,2.11 0.246,10.861 2.125,20.684 5.586,29.198 0.327,0.804 0.141,1.726 -0.475,2.34 -1.576,1.573 -3.26,2.998 -4.887,4.377 -1.833,1.552 -3.563,3.018 -5.138,4.664 -0.409,0.427 -0.974,0.666 -1.56,0.666 z"
   id="path78" />
			</g>
			<g
   id="g84"
   style="fill:#ffffff">
				<path
   style="fill:#ffffff"
   d="m 41.473,120.563 c -0.101,0 -0.205,-0.007 -0.308,-0.021 -0.929,-0.133 -1.857,-0.298 -2.786,-0.464 -1.986,-0.356 -3.863,-0.69 -5.697,-0.69 -0.628,0 -1.207,0.039 -1.771,0.119 -1.175,0.159 -2.274,-0.654 -2.441,-1.834 -0.167,-1.179 0.654,-2.273 1.834,-2.442 0.766,-0.108 1.545,-0.162 2.378,-0.162 2.217,0 4.372,0.385 6.456,0.756 0.88,0.157 1.758,0.315 2.637,0.44 1.181,0.17 2.002,1.264 1.833,2.443 -0.154,1.078 -1.078,1.855 -2.135,1.855 z"
   id="path82" />
			</g>
			<g
   id="g88"
   style="fill:#ffffff">
				<path
   style="fill:#ffffff"
   d="m 50.007,170.736 c -0.055,0 -0.11,-10e-4 -0.166,-0.006 -1.189,-0.09 -2.079,-1.127 -1.99,-2.317 0.406,-5.378 1.725,-19.173 5.184,-31.057 4.18,-14.36 10.198,-21.641 17.884,-21.641 0.115,0 0.685,0.025 1.511,0.066 1.976,0.097 5.656,0.277 7.558,0.277 11.968,0 17.509,-4.664 17.84,-15.087 C 85.006,97.694 80.397,82.065 80.397,69.209 c 0,-2.197 0.113,-4.518 0.336,-6.923 -5.399,-0.508 -10.427,-3.74 -10.427,-9.474 0,-3.53 1.705,-5.488 3.354,-7.381 2.027,-2.328 4.123,-4.736 4.123,-11.306 0,-1.213 -0.051,-2.443 -0.101,-3.684 -0.055,-1.319 -0.108,-2.65 -0.108,-3.982 0,-12.76 7.638,-18.571 14.735,-18.571 1.054,0 2.104,0.131 3.137,0.392 C 98.671,4.712 107.478,0 116.984,0 c 7.141,0 25.927,8.76 25.927,28.487 0,3.632 -0.479,7.301 -0.943,10.847 -0.083,0.634 -0.166,1.267 -0.246,1.899 3.823,1.356 6.272,4.606 6.272,8.573 0,2.818 -2.835,6.193 -6.841,10.652 -0.27,0.301 -0.533,0.593 -0.783,0.874 0.035,0.78 0.075,1.563 0.115,2.347 0.118,2.321 0.24,4.721 0.24,7.089 0,23.821 -17.156,27.123 -24.482,28.532 -1.226,0.236 -2.494,0.481 -2.966,0.694 -1.088,0.496 -2.366,0.014 -2.858,-1.073 -0.493,-1.085 -0.014,-2.366 1.072,-2.858 0.939,-0.427 2.196,-0.669 3.936,-1.004 7.332,-1.411 20.979,-4.037 20.979,-24.292 0,-2.258 -0.119,-4.602 -0.235,-6.869 -0.056,-1.089 -0.111,-2.177 -0.155,-3.258 -0.021,-0.551 0.169,-1.091 0.533,-1.507 0.42,-0.482 0.893,-1.007 1.39,-1.56 1.707,-1.9 5.703,-6.349 5.735,-7.769 0,-2.468 -1.833,-4.363 -4.671,-4.825 -1.137,-0.186 -1.928,-1.231 -1.798,-2.376 0.145,-1.272 0.312,-2.55 0.479,-3.829 0.446,-3.41 0.907,-6.937 0.907,-10.288 0,-16.897 -16.4,-24.169 -21.609,-24.169 -9.986,0 -17.762,5.666 -18.628,7.149 -0.173,0.548 -0.558,1.007 -1.071,1.271 -0.552,0.284 -1.2,0.316 -1.778,0.09 -1.047,-0.412 -2.124,-0.621 -3.199,-0.621 -5.185,0 -10.417,4.407 -10.417,14.253 0,1.273 0.052,2.546 0.104,3.806 0.053,1.299 0.105,2.588 0.105,3.86 0,8.186 -2.997,11.628 -5.184,14.141 -1.549,1.778 -2.293,2.714 -2.293,4.546 0,4.134 4.982,5.226 7.616,5.226 0.188,0 0.454,-0.01 0.765,-0.027 0.617,-0.045 1.259,0.209 1.698,0.676 0.437,0.465 0.647,1.101 0.571,1.736 -0.37,3.087 -0.558,6.043 -0.558,8.785 0,11.745 4.088,26.091 15.61,27.87 1.04,0.16 1.812,1.046 1.83,2.097 l 0.007,0.782 c 0,13.549 -7.46,20.418 -22.174,20.418 -2.007,0 -5.756,-0.184 -7.769,-0.283 -0.69,-0.034 -1.178,-0.058 -1.318,-0.06 -11.116,0 -17.048,26.238 -18.743,48.707 -0.084,1.134 -1.032,1.997 -2.149,1.997 z M 98.392,11.342 98.391,11.345 Z"
   id="path86" />
			</g>
			<g
   id="g92"
   style="fill:#ffffff">
				<path
   style="fill:#ffffff"
   d="m 165.349,174.615 c -1.179,0 -2.142,-0.946 -2.159,-2.128 l -0.007,-0.938 c 0,-3.174 0.23,-6.564 0.474,-10.153 0.254,-3.732 0.516,-7.59 0.516,-11.334 0,-22.968 -11.613,-24.746 -23.909,-26.627 -9.311,-1.425 -19.864,-3.04 -19.864,-17.087 0,-3.939 0.838,-7.98 1.467,-10.677 0.271,-1.161 1.43,-1.884 2.593,-1.612 1.161,0.271 1.884,1.432 1.612,2.593 -0.582,2.491 -1.355,6.204 -1.355,9.696 0,9.858 5.853,11.234 16.2,12.818 12.285,1.881 27.573,4.22 27.573,30.896 0,3.889 -0.267,7.822 -0.526,11.626 -0.239,3.514 -0.464,6.833 -0.464,9.86 l 0.007,0.876 c 0.018,1.195 -0.935,2.174 -2.158,2.191 z"
   id="path90" />
			</g>
			<g
   id="g96"
   style="fill:#ffffff">
				<path
   style="fill:#ffffff"
   d="m 104.801,130.681 c -1.636,0 -3.007,-0.181 -4.078,-0.537 -2.572,-0.856 -2.851,-2.616 -2.851,-3.333 0,-0.952 -0.032,-1.903 -0.063,-2.856 -0.034,-0.999 -0.066,-1.999 -0.066,-2.998 0,-2.34 0.181,-4.158 0.59,-5.892 0.271,-1.16 1.434,-1.882 2.596,-1.607 1.161,0.273 1.879,1.435 1.607,2.596 -0.058,0.245 -0.11,0.493 -0.156,0.748 2.837,-0.58 5.142,-1.423 7.048,-2.12 2.986,-1.091 5.347,-1.954 7.332,-0.567 1.965,1.375 2.36,4.318 2.36,8.624 0,5.785 -8.783,7.942 -14.319,7.942 z m -2.61,-3.87 h 0.014 z m -0.006,-0.717 c 1.743,0.537 7.307,0.367 10.836,-1.525 0.536,-0.287 1.781,-1.039 1.781,-1.83 0,-3.541 -0.333,-4.674 -0.512,-5.027 -0.613,0.014 -2.137,0.571 -3.379,1.025 -2.183,0.798 -5.136,1.878 -8.848,2.518 0.006,0.852 0.034,1.705 0.062,2.558 0.025,0.76 0.051,1.521 0.06,2.281 z"
   id="path94" />
			</g>
			<g
   id="g100"
   style="fill:#ffffff">
				<path
   style="fill:#ffffff"
   d="m 109.343,193.723 c -0.645,-0.014 -1.212,-0.274 -1.611,-0.721 -4.461,-4.997 -10.757,-12.097 -15.41,-17.548 -0.444,-0.52 -0.616,-1.22 -0.462,-1.886 3.664,-15.916 6.292,-29.345 7.197,-43.152 0.079,-1.189 1.087,-2.08 2.297,-2.013 1.189,0.079 2.09,1.106 2.013,2.297 -0.905,13.784 -3.47,27.117 -7.055,42.775 4.02,4.686 9.079,10.407 13.117,14.941 2.553,-2.519 5.216,-4.941 7.808,-7.297 2.839,-2.581 5.767,-5.242 8.522,-8.011 -6.837,-16.128 -11.169,-30.719 -13.236,-44.557 -0.176,-1.179 0.637,-2.279 1.816,-2.454 1.169,-0.181 2.277,0.637 2.454,1.816 2.068,13.847 6.484,28.509 13.501,44.824 0.344,0.801 0.174,1.73 -0.433,2.356 -3.135,3.236 -6.484,6.279 -9.721,9.222 -3.102,2.818 -6.31,5.734 -9.252,8.756 -0.405,0.418 -0.963,0.652 -1.545,0.652 z"
   id="path98" />
			</g>
			<g
   id="g104"
   style="fill:#ffffff">
				<path
   style="fill:#ffffff"
   d="m 70.952,172.546 c -0.894,0 -1.729,-0.558 -2.04,-1.451 -1.136,-3.267 -1.664,-7.037 -1.664,-11.862 0,-2.099 0.093,-4.186 0.183,-6.206 l 0.07,-1.608 c 0.048,-1.191 1.035,-2.148 2.246,-2.069 1.192,0.049 2.118,1.056 2.069,2.246 l -0.072,1.624 c -0.087,1.972 -0.178,4.012 -0.178,6.013 0,4.328 0.453,7.647 1.425,10.445 0.391,1.126 -0.204,2.356 -1.331,2.748 -0.234,0.082 -0.473,0.12 -0.708,0.12 z"
   id="path102" />
			</g>
			<g
   id="g108"
   style="fill:#ffffff">
				<path
   style="fill:#ffffff"
   d="m 144.917,173.839 c -0.28,0 -0.566,-0.055 -0.841,-0.172 -1.098,-0.464 -1.611,-1.732 -1.146,-2.83 0.323,-0.765 0.488,-1.456 0.488,-2.056 0,-3.541 -6.685,-4.388 -8.026,-4.523 -1.186,-0.118 -2.052,-1.177 -1.933,-2.363 0.118,-1.186 1.165,-2.072 2.363,-1.933 7.46,0.745 11.914,4.043 11.914,8.819 0,1.181 -0.28,2.44 -0.831,3.74 -0.348,0.825 -1.146,1.318 -1.988,1.318 z"
   id="path106" />
			</g>
			<g
   id="g112"
   style="fill:#ffffff">
				<path
   style="fill:#ffffff"
   d="m 80.52,44.269 c -0.992,0 -1.886,-0.687 -2.107,-1.697 -0.256,-1.164 0.481,-2.315 1.646,-2.571 7.247,-1.591 13.508,-7.984 16.745,-17.102 0.215,-0.609 0.693,-1.089 1.302,-1.309 0.607,-0.218 1.283,-0.155 1.839,0.177 2.919,1.742 6.346,2.624 10.185,2.624 8.004,0 17.639,-4.029 24.548,-10.264 0.884,-0.798 2.249,-0.73 3.049,0.156 0.8,0.886 0.729,2.25 -0.156,3.049 -6.093,5.5 -16.502,11.377 -27.441,11.377 -3.695,0 -7.099,-0.694 -10.153,-2.066 -3.958,9.308 -10.927,15.805 -18.993,17.575 -0.156,0.036 -0.31,0.051 -0.464,0.051 z"
   id="path110" />
			</g>
			<g
   id="g116"
   style="fill:#ffffff">
				<path
   style="fill:#ffffff"
   d="m 96.491,51.293 c -2.094,0 -3.932,-1.907 -3.932,-4.081 0,-2.017 1.351,-3.649 3.211,-3.882 2.568,-0.297 4.858,1.659 4.858,3.934 0,2.306 -2.184,4.029 -4.137,4.029 z m -0.112,-3.691 c 0.278,-0.074 0.477,-0.288 0.499,-0.395 0,-0.083 -0.024,-0.135 -0.031,-0.143 -0.022,-0.022 -0.152,-0.089 -0.356,-0.089 -0.077,0 -0.135,0.01 -0.167,0.018 0.018,0.006 0.004,0.058 -0.006,0.14 l -0.28,-1.661 0.268,2.142 c 0.025,-0.002 0.049,-0.007 0.073,-0.012 z"
   id="path114" />
			</g>
			<g
   id="g120"
   style="fill:#ffffff">
				<path
   style="fill:#ffffff"
   d="m 125.444,48.489 c -1.792,0 -3.196,-1.453 -3.196,-3.309 0,-1.503 0.949,-3.026 2.307,-3.707 0.827,-0.419 1.834,-0.256 2.494,0.403 0.101,0.1 0.215,0.2 0.327,0.301 0.637,0.565 1.598,1.42 1.598,2.778 0,0.476 -0.157,0.937 -0.444,1.311 -0.217,1.087 -0.938,2.223 -3.086,2.223 z m 0.855,-3.534 0.19,0.378 c 0.045,-0.023 0.069,-0.042 0.074,-0.048 10e-4,-0.115 -0.017,-0.226 -0.051,-0.33 z"
   id="path118" />
			</g>
			<g
   id="g124"
   style="fill:#ffffff">
				<path
   style="fill:#ffffff"
   d="m 115.695,65.217 c -0.846,0 -1.649,-0.499 -1.995,-1.33 -0.458,-1.101 0.062,-2.364 1.164,-2.822 1.334,-0.555 2.693,-2.383 2.693,-3.62 0,-0.235 -0.096,-0.413 -0.188,-0.527 -0.174,0.096 -0.389,0.226 -0.552,0.326 -0.828,0.503 -1.96,1.193 -3.351,1.193 -2.827,0 -7.034,-3.008 -7.034,-11.293 0,-1.141 0.059,-2.236 0.125,-3.351 0.07,-1.191 1.112,-2.113 2.281,-2.028 1.19,0.07 2.099,1.091 2.028,2.281 -0.058,0.987 -0.117,2.04 -0.117,3.098 0,5.513 2.193,6.921 2.735,6.975 0.183,-0.014 0.746,-0.359 1.084,-0.564 0.776,-0.472 1.74,-1.06 2.911,-1.06 2.075,0 4.395,2.117 4.395,4.949 0,2.965 -2.401,6.377 -5.353,7.606 -0.269,0.114 -0.55,0.167 -0.826,0.167 z m 1.93,-8.418 z"
   id="path122" />
			</g>
			<g
   id="g128"
   style="fill:#ffffff">
				<path
   style="fill:#ffffff"
   d="m 105.965,81.572 c -4.727,0 -8.468,-3.518 -10.077,-7.004 -0.499,-1.082 -0.027,-2.366 1.056,-2.866 1.087,-0.502 2.364,-0.028 2.866,1.056 1,2.166 3.352,4.497 6.155,4.497 0.304,0 0.61,-0.028 0.911,-0.086 1.171,-0.221 2.301,0.551 2.522,1.723 0.219,1.172 -0.552,2.301 -1.723,2.522 -0.564,0.104 -1.139,0.158 -1.71,0.158 z"
   id="path126" />
			</g>
			
			
			<g
   id="g140"
   style="fill:#ffffff">
				<path
   style="fill:#ffffff"
   d="m 206.943,140.945 c -0.096,0 -0.191,-0.006 -0.288,-0.02 -1.182,-0.157 -2.013,-1.243 -1.854,-2.425 0.268,-2.013 0.791,-4.141 1.345,-6.394 0.798,-3.244 1.623,-6.601 1.623,-9.523 0,-6.667 -3.435,-7.257 -9.508,-7.727 -4.474,-0.346 -10.601,-0.819 -10.601,-7.857 0,-3.541 2.726,-6.511 5.361,-9.383 1.268,-1.382 2.466,-2.688 3.275,-3.953 1.344,-2.099 1.344,-8.261 1.344,-10.58 0,-7.784 -1.514,-33.181 -20.993,-33.181 -11.966,0 -17.071,6.791 -17.071,22.707 0,2.107 -1.303,3.516 -2.349,4.647 -0.879,0.95 -1.417,1.567 -1.417,2.271 0,0.453 0.076,0.606 0.076,0.607 0.136,0.045 0.936,0.1 1.465,0.136 2.158,0.15 6.647,0.461 6.647,6.999 l -0.01,1.421 c 0,3.74 1.839,4.841 5.087,6.466 3.029,1.514 6.8,3.4 6.8,8.926 0,5.228 -3.739,8.605 -9.526,8.605 -2.142,0 -4.404,-0.47 -6.4,-0.883 -1.594,-0.33 -3.1,-0.642 -4.173,-0.642 -5.94,0 -9.825,7.136 -11.221,10.205 -0.493,1.087 -1.774,1.567 -2.859,1.071 -1.085,-0.493 -1.564,-1.772 -1.071,-2.859 1.74,-3.829 6.702,-12.735 15.151,-12.735 1.517,0 3.233,0.356 5.05,0.732 1.879,0.389 3.823,0.793 5.523,0.793 2.376,0 5.208,-0.744 5.208,-4.287 0,-2.735 -1.432,-3.573 -4.414,-5.065 -3.154,-1.576 -7.474,-3.736 -7.474,-10.327 l 0.01,-1.421 c 0,-2.508 -0.453,-2.54 -2.627,-2.69 -1.664,-0.115 -5.561,-0.385 -5.561,-5.052 0,-2.43 1.482,-4.033 2.564,-5.204 0.59,-0.638 1.202,-1.299 1.202,-1.715 0,-27.025 16.099,-27.025 21.389,-27.025 18.663,0 25.311,19.371 25.311,37.5 0,5.062 -0.245,10.129 -2.024,12.908 -1.012,1.58 -2.395,3.087 -3.732,4.544 -2.076,2.263 -4.224,4.604 -4.224,6.463 0,2.558 1.051,3.123 6.616,3.553 5.372,0.415 13.493,1.043 13.493,12.031 0,3.447 -0.888,7.061 -1.749,10.555 -0.524,2.135 -1.021,4.154 -1.259,5.933 -0.143,1.086 -1.069,1.875 -2.135,1.875 z"
   id="path138" />
			</g>
			<g
   id="g144"
   style="fill:#ffffff">
				<path
   style="fill:#ffffff"
   d="m 159.918,76.597 c -0.874,0 -1.697,-0.534 -2.021,-1.402 -0.419,-1.116 0.148,-2.36 1.264,-2.779 5.325,-1.997 9.497,-7.628 9.497,-12.821 l -0.003,-0.357 c -0.008,-0.564 -0.025,-1.736 1.097,-2.414 1.115,-0.672 2.151,-0.11 2.492,0.075 0.432,0.235 1.58,0.857 4.603,0.857 3.835,0 8.012,-1.574 11.764,-4.433 0.947,-0.722 2.301,-0.541 3.026,0.409 0.723,0.949 0.54,2.304 -0.409,3.026 -4.499,3.428 -9.608,5.316 -14.381,5.316 -1.695,0 -2.997,-0.159 -4.024,-0.394 -0.915,6.296 -5.83,12.41 -12.146,14.777 -0.25,0.097 -0.508,0.14 -0.759,0.14 z"
   id="path142" />
			</g>
			<g
   id="g148"
   style="fill:#ffffff">
				<path
   style="fill:#ffffff"
   d="m 185.78,93.407 c -0.905,0 -1.747,-0.572 -2.048,-1.477 -0.377,-1.131 0.235,-2.354 1.366,-2.73 1.193,-0.398 1.702,-0.753 1.905,-0.936 -0.169,-0.436 -0.467,-1.134 -0.718,-1.725 -1.493,-3.494 -2.728,-6.569 -2.728,-8.791 0,-0.416 0.027,-0.838 0.083,-1.264 0.156,-1.182 1.244,-2.011 2.422,-1.86 1.182,0.156 2.014,1.24 1.86,2.422 -0.031,0.237 -0.046,0.471 -0.046,0.701 0,1.519 1.549,5.146 2.381,7.094 0.894,2.096 1.153,2.731 1.153,3.434 0,2.239 -1.664,3.929 -4.946,5.02 -0.229,0.077 -0.459,0.112 -0.684,0.112 z"
   id="path146" />
			</g>
			
			<g
   id="g156"
   style="fill:#ffffff">
				<path
   style="fill:#ffffff"
   d="m 180.446,126.545 c -6.058,0 -6.429,-7.42 -6.587,-10.589 -0.02,-0.375 -0.036,-0.717 -0.058,-1.008 -0.091,-1.189 0.798,-2.228 1.986,-2.318 1.171,-0.111 2.228,0.797 2.318,1.986 0.025,0.325 0.045,0.706 0.066,1.125 0.169,3.368 0.561,6.486 2.274,6.486 0.436,0 4.474,-0.808 4.474,-3.5 0,-0.732 -0.121,-1.557 -0.249,-2.432 -0.135,-0.924 -0.274,-1.879 -0.274,-2.806 0,-1.192 0.967,-2.159 2.159,-2.159 1.192,0 2.159,0.967 2.159,2.159 0,0.613 0.111,1.375 0.229,2.182 0.145,0.988 0.294,2.009 0.294,3.056 0.001,5.569 -6.204,7.818 -8.791,7.818 z"
   id="path154" />
			</g>
			<g
   id="g160"
   style="fill:#ffffff">
				<path
   style="fill:#ffffff"
   d="m 181.527,165.547 c -0.516,0 -1.019,-0.186 -1.413,-0.526 l -0.679,-0.588 c -3.365,-2.908 -6.846,-5.916 -9.939,-9.249 -0.433,-0.467 -0.638,-1.099 -0.561,-1.732 1.226,-9.998 2.482,-19.779 4.381,-29.514 0.23,-1.169 1.372,-1.926 2.533,-1.707 1.171,0.229 1.934,1.364 1.706,2.533 -1.81,9.272 -3.035,18.639 -4.211,28.207 2.456,2.558 5.19,4.969 7.887,7.307 1.574,-1.907 3.264,-3.718 4.913,-5.483 l 0.527,-0.567 c -3.463,-9.99 -4.195,-20.713 -4.601,-30.041 -0.051,-1.192 0.873,-2.2 2.063,-2.252 1.25,-0.084 2.2,0.873 2.252,2.063 0.409,9.392 1.15,20.23 4.785,29.982 0.285,0.763 0.115,1.622 -0.437,2.221 l -1.434,1.541 c -2.18,2.333 -4.238,4.539 -6.049,6.944 -0.36,0.478 -0.901,0.784 -1.495,0.848 -0.077,0.009 -0.153,0.013 -0.228,0.013 z"
   id="path158" />
			</g>
		</g>
	</g>
</g>
<g
   id="Layer_1">
</g>
</svg>
