<?xml version="1.0" encoding="UTF-8" standalone="no"?>
<!-- Generator: Adobe Illustrator 21.0.2, SVG Export Plug-In . SVG Version: 6.00 Build 0)  -->

<svg
   version="1.1"
   x="0px"
   y="0px"
   viewBox="0 0 208.771 196.758"
   style="enable-background:new 0 0 208.771 196.758;"
   xml:space="preserve"
   id="svg198"
   sodipodi:docname="marketing.svg"
   inkscape:version="1.1 (c68e22c387, 2021-05-23)"
   xmlns:inkscape="http://www.inkscape.org/namespaces/inkscape"
   xmlns:sodipodi="http://sodipodi.sourceforge.net/DTD/sodipodi-0.dtd"
   xmlns="http://www.w3.org/2000/svg"
   xmlns:svg="http://www.w3.org/2000/svg"><defs
   id="defs202" /><sodipodi:namedview
   id="namedview200"
   pagecolor="#505050"
   bordercolor="#eeeeee"
   borderopacity="1"
   inkscape:pageshadow="0"
   inkscape:pageopacity="0"
   inkscape:pagecheckerboard="0"
   showgrid="false"
   inkscape:zoom="7.1380113"
   inkscape:cx="104.44086"
   inkscape:cy="98.346721"
   inkscape:window-width="3840"
   inkscape:window-height="2050"
   inkscape:window-x="2928"
   inkscape:window-y="-12"
   inkscape:window-maximized="1"
   inkscape:current-layer="g194" />
<g
   id="_x34_3"
   transform="matrix(0.91989745,0,0,0.91989745,9.6679414,9.145458)">
	<g
   id="g194">
		
		
		
		
		
		
		
		
		
		
		
		
		
		
		
		
		
		<g
   id="g72"
   style="fill:#ffffff">
			<path
   style="fill:#ffffff"
   d="m 36.121,196.758 c -1.226,0 -2.246,-0.961 -2.308,-2.198 -0.072,-1.455 -0.239,-3.013 -0.414,-4.662 -0.259,-2.42 -0.525,-4.922 -0.525,-7.398 0,-13.949 10.081,-16.025 16.751,-17.4 5.726,-1.179 7.392,-1.885 7.392,-4.281 0,-1.882 -0.776,-2.372 -4.096,-3.647 -4.481,-1.723 -11.254,-4.324 -11.254,-17.111 0,-16.498 9.883,-23.882 19.678,-23.882 14.229,0 22.065,10.176 22.065,28.651 0,6.667 -2.721,9.727 -4.707,11.96 -1.321,1.486 -1.956,2.257 -1.956,3.525 0,0.575 0.163,0.928 0.237,1 14.121,0.67 20.467,12.969 20.467,24.843 0,1.534 -0.105,3.082 -0.315,4.603 -0.175,1.266 -1.351,2.131 -2.607,1.977 -1.266,-0.175 -2.15,-1.342 -1.977,-2.606 0.181,-1.313 0.273,-2.65 0.273,-3.974 0,-8.976 -4.225,-19.666 -16.132,-20.261 -2.692,-0.136 -4.571,-2.43 -4.571,-5.582 0,-3.082 1.661,-4.949 3.124,-6.598 1.741,-1.956 3.538,-3.98 3.538,-8.887 0,-15.943 -5.868,-24.025 -17.439,-24.025 -6.944,0 -15.053,5.043 -15.053,19.257 0,9.609 4.025,11.156 8.288,12.793 3.145,1.209 7.062,2.713 7.062,7.965 0,6.529 -6.146,7.793 -11.084,8.811 -6.716,1.384 -13.059,2.691 -13.059,12.869 0,2.228 0.253,4.608 0.498,6.907 0.184,1.717 0.357,3.338 0.435,4.924 0.063,1.275 -0.918,2.361 -2.195,2.424 -0.039,0.001 -0.078,0.003 -0.116,0.003 z"
   id="path70" />
		</g>
		<g
   id="g76"
   style="fill:#ffffff">
			<path
   style="fill:#ffffff"
   d="m 150.207,186.692 c -1.149,0 -2.146,-0.855 -2.292,-2.025 -1.521,-12.157 -12.919,-18.632 -17.21,-21.068 -1.813,-1.03 -2.811,-1.598 -2.811,-3.09 0,-3.361 2.465,-5.768 5.074,-8.318 3.472,-3.391 7.408,-7.235 7.408,-14.407 0,-12.196 -9.972,-19.66 -15.404,-19.66 -11.09,0 -16.013,17.235 -16.013,23.784 0,6.777 1.742,6.892 4.377,7.068 2.284,0.15 6.533,0.434 6.533,6.604 0,7.261 -5.418,8.914 -10.198,10.373 -5.291,1.616 -10.289,3.141 -12.159,10.992 -0.297,1.242 -1.543,2.012 -2.786,1.714 -1.242,-0.295 -2.01,-1.542 -1.714,-2.786 2.483,-10.429 9.896,-12.692 15.309,-14.343 5.127,-1.565 6.922,-2.427 6.922,-5.949 0,-1.841 0,-1.841 -2.213,-1.989 -4.209,-0.28 -8.697,-1.435 -8.697,-11.683 0,-4.242 1.47,-11.204 4.752,-17.201 4.016,-7.333 9.509,-11.209 15.887,-11.209 7.974,0 20.029,9.686 20.029,24.286 0,9.12 -5.086,14.088 -8.801,17.716 -1.507,1.471 -2.858,2.79 -3.414,3.962 0.065,0.036 0.133,0.074 0.202,0.113 4.842,2.751 17.707,10.058 19.516,24.516 0.158,1.268 -0.741,2.424 -2.007,2.582 -0.097,0.012 -0.194,0.018 -0.29,0.018 z"
   id="path74" />
		</g>
		<g
   id="g80"
   style="fill:#ffffff">
			<path
   style="fill:#ffffff"
   d="m 150.626,193.403 c -1.125,0 -2.111,-0.821 -2.284,-1.966 -0.178,-1.178 -0.268,-2.346 -0.268,-3.474 0,-10.561 7.648,-17.131 13.794,-22.41 3.436,-2.951 6.681,-5.738 6.681,-7.843 0,-1.113 0,-1.574 -2.116,-1.574 -0.283,0 -0.568,0.006 -0.854,0.014 -0.318,0.006 -0.635,0.014 -0.947,0.014 -6.738,0 -9.184,-9.203 -9.184,-15.39 0,-14.104 11.49,-26.653 20.547,-26.653 14.342,0 25.158,8.795 25.158,20.457 0,8.279 -5.025,13.052 -8.693,16.537 -2.15,2.042 -4.007,3.805 -4.007,5.378 0,2.667 0.872,3.013 5.32,3.593 5.972,0.777 14.997,1.951 14.997,19.38 0,1.208 -0.026,2.414 -0.05,3.621 -0.026,1.172 -0.05,2.344 -0.05,3.514 0,1.277 -1.036,2.313 -2.313,2.313 -1.277,0 -2.313,-1.036 -2.313,-2.313 0,-1.203 0.026,-2.406 0.05,-3.612 0.026,-1.173 0.05,-2.349 0.05,-3.523 0,-13.366 -5.327,-14.06 -10.968,-14.794 -3.946,-0.513 -9.349,-1.217 -9.349,-8.179 0,-3.558 2.646,-6.071 5.446,-8.732 3.566,-3.388 7.253,-6.892 7.253,-13.184 0,-10.283 -10.579,-15.831 -20.532,-15.831 -6.142,0 -15.922,10.081 -15.922,22.027 0,4.495 1.735,10.764 4.558,10.764 0.278,0 0.56,-0.006 0.843,-0.014 0.321,-0.006 0.642,-0.014 0.958,-0.014 5.865,0 6.741,3.883 6.741,6.199 0,4.228 -3.843,7.53 -8.294,11.352 -5.71,4.906 -12.181,10.465 -12.181,18.901 0,0.898 0.072,1.833 0.217,2.781 0.191,1.263 -0.677,2.442 -1.941,2.633 -0.115,0.019 -0.231,0.028 -0.347,0.028 z"
   id="path78" />
		</g>
		
		
		
		
		
		
		
		
		<g
   id="g116"
   style="fill:#ffffff">
			<path
   style="fill:#ffffff"
   d="m 6.322,98.977 c -1.277,0 -2.313,-1.036 -2.313,-2.313 V 96.488 C 4.009,95.967 4.001,95.44 3.971,94.91 2.587,70.009 1.018,41.784 1.018,14.42 l 0.003,-2.079 c 0.003,-0.616 0.251,-1.206 0.691,-1.638 0.432,-0.426 1.015,-0.664 1.622,-0.664 12.656,0.152 25.495,0.477 37.911,0.792 17.144,0.435 34.871,0.884 52.283,0.884 4.743,0 9.351,-0.033 13.696,-0.099 1.265,0 2.281,0.964 2.344,2.195 0.307,6.032 0.578,12.099 0.849,18.167 0.431,9.596 0.875,19.517 1.456,29.122 0.077,1.275 -0.893,2.371 -2.168,2.448 -1.318,0.069 -2.372,-0.894 -2.448,-2.168 -0.584,-9.641 -1.03,-19.582 -1.459,-29.196 -0.238,-5.312 -0.476,-10.624 -0.738,-15.912 -3.701,0.047 -7.571,0.069 -11.532,0.069 -17.471,0 -35.228,-0.45 -52.401,-0.885 -11.635,-0.294 -23.641,-0.598 -35.484,-0.76 0.01,27.15 1.571,55.201 2.947,79.96 0.033,0.617 0.044,1.229 0.044,1.834 v 0.176 c 0,1.275 -1.036,2.311 -2.312,2.311 z"
   id="path114" />
		</g>
		
		
		
		
		<g
   id="g136"
   style="fill:#ffffff">
			<path
   style="fill:#ffffff"
   d="m 51.213,88.592 c -8.444,0 -17.296,-3.79 -23.802,-10.219 C 21.104,72.139 17.682,64.072 17.78,55.658 17.986,38.794 32.322,24.655 49.736,24.137 c 0.372,-0.012 0.742,-0.014 1.123,-0.015 14.583,0.036 26.404,7.636 30.845,19.833 0.438,1.2 -0.181,2.527 -1.382,2.963 C 79.13,47.353 77.797,46.739 77.359,45.536 73.599,35.211 63.44,28.779 50.843,28.747 c -0.325,0.002 -0.648,0.003 -0.967,0.012 -14.971,0.446 -27.294,12.537 -27.47,26.954 -0.083,7.146 2.849,14.026 8.256,19.37 5.8,5.731 13.672,9.054 21.1,8.876 7.461,-0.173 14.682,-3.487 19.811,-9.093 0.864,-0.941 2.325,-1.006 3.267,-0.145 0.943,0.861 1.007,2.325 0.145,3.268 -5.975,6.53 -14.399,10.392 -23.114,10.596 -0.22,0.004 -0.439,0.007 -0.658,0.007 z"
   id="path134" />
		</g>
		
		
		
		<g
   id="g152"
   style="fill:#ffffff">
			<path
   style="fill:#ffffff"
   d="m 21.433,61.205 c -1.212,0 -2.23,-0.943 -2.307,-2.168 -0.08,-1.275 0.888,-2.373 2.164,-2.453 3.501,-0.22 6.984,-0.388 10.459,-0.557 5.881,-0.285 11.946,-0.578 17.948,-1.125 2.212,-9.128 4.422,-18.055 6.917,-26.785 0.351,-1.23 1.635,-1.936 2.859,-1.589 1.229,0.351 1.939,1.632 1.589,2.859 -2.619,9.158 -4.927,18.566 -7.258,28.204 -0.232,0.956 -1.04,1.661 -2.019,1.757 -6.646,0.661 -13.339,0.985 -19.812,1.299 -3.454,0.167 -6.914,0.334 -10.394,0.553 -0.05,0.003 -0.098,0.005 -0.146,0.005 z"
   id="path150" />
		</g>
		<g
   id="g156"
   style="fill:#ffffff">
			<path
   style="fill:#ffffff"
   d="m 49.513,58.449 c -0.917,0 -1.786,-0.55 -2.147,-1.455 -0.486,-1.217 -1.039,-2.411 -1.573,-3.566 -1.036,-2.24 -2.108,-4.556 -2.757,-7.157 l -0.309,-1.235 c -1.15,-4.629 -2.238,-9.001 -4.147,-13.137 -0.534,-1.161 -0.029,-2.534 1.131,-3.07 1.164,-0.536 2.533,-0.029 3.07,1.131 2.093,4.535 3.284,9.327 4.436,13.961 l 0.306,1.229 c 0.544,2.177 1.479,4.198 2.468,6.336 0.56,1.209 1.138,2.46 1.67,3.791 0.474,1.186 -0.102,2.531 -1.289,3.005 -0.282,0.114 -0.573,0.167 -0.859,0.167 z"
   id="path154" />
		</g>
		<g
   id="g160"
   style="fill:#ffffff">
			<path
   style="fill:#ffffff"
   d="m 127.069,109.398 c -1.277,0 -2.313,-1.036 -2.313,-2.313 0,-1.453 0.007,-2.913 0.015,-4.38 0.008,-1.47 0.015,-2.944 0.015,-4.422 0,-2.858 -0.026,-6.125 -0.185,-9.474 -2.926,0.527 -5.415,0.614 -7.693,0.614 -9.923,0 -27.808,-1.462 -36.094,-11.254 -2.109,-2.49 -5.104,-3.493 -8.275,-4.555 -6.143,-2.057 -13.107,-4.389 -13.107,-17.709 0,-0.578 0.006,-1.156 0.014,-1.736 l 0.004,-0.482 c 0.011,-0.968 0.622,-1.826 1.533,-2.153 2.137,-0.765 4.364,-1.153 6.622,-1.153 8.304,0 14.968,5.005 16.873,12.403 9.387,0.105 17.79,3.993 25.923,7.754 13.496,-9.024 21.128,-11.005 25.28,-12.083 2.993,-0.777 2.993,-0.777 2.993,-3.709 0,-1.198 -0.208,-1.391 -2.466,-2.293 -4.79,-1.914 -9.465,-4.824 -9.465,-17.269 0,-7.896 1.108,-13.673 3.386,-17.661 0.637,-1.11 2.054,-1.491 3.156,-0.861 1.11,0.634 1.494,2.048 0.861,3.156 -1.87,3.27 -2.778,8.297 -2.778,15.366 0,10.353 3.332,11.686 6.556,12.973 2.269,0.906 5.375,2.149 5.375,6.589 0,5.949 -1.771,6.97 -6.457,8.187 -3.989,1.036 -11.413,2.963 -24.894,12.174 -0.673,0.462 -1.536,0.53 -2.274,0.191 l -1.215,-0.562 C 100.244,70.935 91.771,67.004 82.689,67.439 81.478,67.474 80.442,66.624 80.286,65.43 79.345,58.269 73.053,55.006 67.605,55.006 c -1.197,0 -2.385,0.143 -3.546,0.426 -10e-4,0.158 -10e-4,0.316 -10e-4,0.473 0,9.99 4.174,11.388 9.95,13.321 3.466,1.161 7.395,2.475 10.338,5.955 7.345,8.679 25.219,9.616 32.563,9.616 2.471,0 5.428,-0.083 9.271,-1.063 0.664,-0.167 1.37,-0.036 1.926,0.364 0.556,0.402 0.905,1.028 0.953,1.714 0.312,4.404 0.354,8.775 0.354,12.47 0,1.486 -0.008,2.969 -0.015,4.446 -0.008,1.458 -0.015,2.91 -0.015,4.356 -0.002,1.278 -1.038,2.314 -2.314,2.314 z"
   id="path158" />
		</g>
		<g
   id="g164"
   style="fill:#ffffff">
			<path
   style="fill:#ffffff"
   d="m 148.746,128.545 c -1.066,0 -2.025,-0.742 -2.259,-1.828 -7.017,-32.745 -1.878,-39.081 5.237,-47.852 2.715,-3.347 5.521,-6.809 8.068,-12.446 0.527,-1.162 1.897,-1.682 3.06,-1.156 1.164,0.526 1.682,1.896 1.156,3.06 -2.793,6.184 -5.927,10.048 -8.691,13.457 -6.539,8.063 -10.859,13.389 -4.306,43.969 0.268,1.25 -0.529,2.478 -1.777,2.746 -0.164,0.034 -0.326,0.05 -0.488,0.05 z"
   id="path162" />
		</g>
		<g
   id="g168"
   transform="translate(4.251,3.473)"
   style="fill:#ffffff">
			<path
   style="fill:#ffffff"
   d="m 167.441,30.441 c -0.027,0 -0.054,0 -0.08,-0.002 -6.449,-0.218 -12.154,-4.338 -14.476,-10.24 -4.418,0.229 -9.147,0.333 -15.047,0.333 -3.106,0 -6.214,-0.027 -9.33,-0.056 -2.353,-0.021 -4.713,-0.042 -7.078,-0.051 -0.813,-0.003 -1.564,-0.434 -1.98,-1.132 -0.414,-0.699 -0.432,-1.565 -0.045,-2.28 C 125.161,6.36 134.867,0 145.369,0 c 16.37,0 24.936,11.945 24.936,23.744 0,1.695 -0.211,3.367 -0.626,4.967 -0.267,1.021 -1.19,1.73 -2.238,1.73 z m -12.91,-14.964 c 1.046,0 1.973,0.708 2.238,1.733 1.102,4.255 4.586,7.487 8.804,8.372 0.072,-0.601 0.107,-1.211 0.107,-1.839 0,-12.552 -10.218,-19.118 -20.311,-19.118 -7.629,0 -14.812,4.121 -19.8,11.2 0.995,0.008 1.989,0.016 2.983,0.026 3.1,0.029 6.195,0.056 9.287,0.056 6.604,0 11.709,-0.131 16.551,-0.425 0.047,-0.003 0.095,-0.005 0.141,-0.005 z"
   id="path166" />
		</g>
		<g
   id="g172"
   style="fill:#ffffff">
			<path
   style="fill:#ffffff"
   d="m 185.461,114.256 c -1.173,0 -2.179,-0.89 -2.298,-2.082 -0.239,-2.393 -0.351,-4.915 -0.351,-7.938 0,-2.076 0.053,-4.144 0.104,-6.214 0.053,-2.031 0.104,-4.064 0.104,-6.107 0,-21.768 -11.106,-25.392 -20.029,-28.305 -5.137,-1.677 -10.448,-3.41 -10.448,-9.068 0,-5.908 3.391,-10.508 6.67,-14.956 2.911,-3.949 5.66,-7.678 5.809,-11.984 0.045,-1.277 1.138,-2.302 2.391,-2.232 1.277,0.044 2.275,1.114 2.231,2.391 -0.197,5.738 -3.507,10.227 -6.708,14.569 -2.966,4.023 -5.769,7.824 -5.769,12.211 0,2.093 2.1,2.987 7.258,4.669 9.247,3.018 23.22,7.578 23.22,32.703 0,2.082 -0.053,4.154 -0.105,6.225 -0.051,2.03 -0.102,4.059 -0.102,6.097 0,2.865 0.104,5.241 0.327,7.477 0.128,1.271 -0.8,2.405 -2.07,2.531 -0.079,0.01 -0.158,0.013 -0.234,0.013 z"
   id="path170" />
		</g>
		<g
   id="g176"
   inkscape:transform-center-x="8.3615618"
   inkscape:transform-center-y="-0.78389641"
   transform="translate(0.06669289,-2.1611952)"
   style="fill:#ffffff">
			<path
   style="fill:#ffffff"
   d="m 171.313,117.236 c -0.068,0 -0.136,-0.003 -0.203,-0.009 -1.272,-0.11 -2.215,-1.232 -2.103,-2.504 0.081,-0.947 0.122,-1.944 0.122,-3.043 0,-2.344 -0.191,-4.794 -0.377,-7.164 -0.191,-2.45 -0.388,-4.983 -0.388,-7.491 0,-0.623 0.01,-1.247 0.038,-1.866 0.057,-1.277 1.152,-2.271 2.412,-2.21 1.277,0.057 2.266,1.137 2.21,2.412 -0.024,0.553 -0.035,1.107 -0.035,1.664 0,2.328 0.182,4.662 0.375,7.131 0.191,2.459 0.39,4.999 0.39,7.524 0,1.235 -0.045,2.361 -0.14,3.444 -0.104,1.204 -1.115,2.112 -2.301,2.112 z"
   id="path174" />
		</g>
		<g
   id="g180"
   style="fill:#ffffff">
			<path
   style="fill:#ffffff"
   d="m 146.498,87.848 c -0.679,0 -1.351,-0.297 -1.807,-0.867 -3.716,-4.647 -6.605,-9.825 -9.397,-14.834 -1.542,-2.765 -3.136,-5.622 -4.833,-8.319 -0.681,-1.081 -0.355,-2.509 0.726,-3.189 1.08,-0.679 2.508,-0.357 3.189,0.726 1.763,2.801 3.386,5.713 4.958,8.53 2.825,5.067 5.493,9.852 8.968,14.196 0.798,0.998 0.637,2.453 -0.36,3.251 -0.427,0.341 -0.938,0.506 -1.444,0.506 z"
   id="path178" />
		</g>
		<g
   id="g184"
   style="fill:#ffffff">
			<path
   style="fill:#ffffff"
   d="m 147.427,70.733 c -3.617,0 -5.778,-3.707 -5.778,-7.292 0,-1.277 1.036,-2.313 2.313,-2.313 1.277,0 2.313,1.036 2.313,2.313 0,1.432 0.772,2.667 1.152,2.667 0.37,0 0.84,-0.783 1.025,-1.711 0.25,-1.253 1.471,-2.073 2.721,-1.814 1.253,0.25 2.064,1.468 1.814,2.721 -0.657,3.298 -2.84,5.429 -5.56,5.429 z"
   id="path182" />
		</g>
		<g
   id="g188"
   style="fill:#ffffff">
			<path
   style="fill:#ffffff"
   d="m 141.145,78.989 c -0.313,0 -0.632,-0.063 -0.938,-0.199 -1.167,-0.519 -1.692,-1.887 -1.174,-3.054 0.571,-1.283 1.141,-2.493 1.711,-3.706 0.557,-1.182 1.113,-2.364 1.668,-3.615 0.519,-1.165 1.881,-1.695 3.054,-1.174 1.167,0.519 1.693,1.887 1.174,3.053 -0.571,1.283 -1.141,2.493 -1.711,3.706 -0.557,1.182 -1.113,2.364 -1.668,3.615 -0.384,0.862 -1.229,1.374 -2.116,1.374 z"
   id="path186" />
		</g>
		<g
   id="g192"
   style="fill:#ffffff">
			<path
   style="fill:#ffffff"
   d="m 154.945,77.299 c -0.771,0 -1.524,-0.385 -1.963,-1.087 l -4.224,-6.758 c -0.676,-1.083 -0.346,-2.51 0.736,-3.188 1.083,-0.676 2.508,-0.346 3.188,0.736 l 4.223,6.758 c 0.676,1.083 0.346,2.51 -0.736,3.187 -0.38,0.239 -0.805,0.352 -1.224,0.352 z"
   id="path190" />
		</g>
	</g>
</g>
<g
   id="Layer_1">
</g>
</svg>
