<?xml version="1.0" encoding="UTF-8" standalone="no"?>
<!-- Generator: Adobe Illustrator 21.0.2, SVG Export Plug-In . SVG Version: 6.00 Build 0)  -->

<svg
   version="1.1"
   x="0px"
   y="0px"
   viewBox="0 0 189.383 206.284"
   style="enable-background:new 0 0 189.383 206.284;"
   xml:space="preserve"
   id="svg222"
   sodipodi:docname="office.svg"
   inkscape:version="1.1 (c68e22c387, 2021-05-23)"
   xmlns:inkscape="http://www.inkscape.org/namespaces/inkscape"
   xmlns:sodipodi="http://sodipodi.sourceforge.net/DTD/sodipodi-0.dtd"
   xmlns="http://www.w3.org/2000/svg"
   xmlns:svg="http://www.w3.org/2000/svg"><defs
   id="defs226" /><sodipodi:namedview
   id="namedview224"
   pagecolor="#505050"
   bordercolor="#eeeeee"
   borderopacity="1"
   inkscape:pageshadow="0"
   inkscape:pageopacity="0"
   inkscape:pagecheckerboard="0"
   showgrid="false"
   inkscape:zoom="4.2320297"
   inkscape:cx="94.517295"
   inkscape:cy="102.90571"
   inkscape:window-width="2005"
   inkscape:window-height="1621"
   inkscape:window-x="4761"
   inkscape:window-y="188"
   inkscape:window-maximized="0"
   inkscape:current-layer="g218" />
<g
   id="_x34_2">
	<g
   id="g218">
		
		
		
		
		
		
		
		
		
		
		
		
		
		<g
   id="g56"
   style="fill:#ffffff"
   transform="translate(-4.962158,-8.979143)">
			<path
   style="fill:#ffffff"
   d="m 63.192,172.334 c -1.141,0 -2.086,-0.888 -2.155,-2.028 -0.33,-5.439 -0.744,-10.943 -1.145,-16.265 -0.678,-9.014 -1.38,-18.335 -1.69,-27.581 -10e-4,-0.024 -0.003,-0.152 -0.003,-0.176 0,-3.315 3.143,-5.857 5.954,-5.918 5.836,-0.125 11.757,-0.177 17.483,-0.228 13.112,-0.117 26.67,-0.237 39.872,-1.241 0.739,-0.055 1.449,0.269 1.891,0.859 0.111,0.145 0.579,0.433 0.889,0.624 1.02,0.628 2.728,1.68 2.819,3.812 0.201,4.696 0.321,9.451 0.437,14.049 0.249,9.838 0.505,20.012 1.574,30.033 0.063,0.596 -0.123,1.191 -0.515,1.642 -0.391,0.453 -0.953,0.723 -1.551,0.745 -20.551,0.771 -42.411,1.534 -63.86,1.673 z m 57.677,-49.058 c -13.038,0.947 -26.33,1.066 -39.194,1.181 -5.712,0.051 -11.62,0.103 -17.428,0.228 -0.651,0.013 -1.728,0.793 -1.728,1.6 0.307,9.189 1.005,18.463 1.68,27.432 0.352,4.674 0.714,9.487 1.022,14.284 19.922,-0.166 40.184,-0.855 59.374,-1.569 -0.894,-9.436 -1.133,-18.903 -1.365,-28.08 -0.114,-4.515 -0.231,-9.182 -0.426,-13.777 -0.176,-0.148 -0.53,-0.365 -0.778,-0.519 -0.359,-0.221 -0.765,-0.469 -1.157,-0.78 z"
   id="path54" />
		</g>
		<g
   id="g60"
   style="fill:#ffffff"
   transform="translate(-4.962158,-8.979143)">
			<path
   style="fill:#ffffff"
   d="m 63.512,181.146 c -1.1,0 -2.036,-0.834 -2.146,-1.945 -0.271,-2.725 -0.628,-5.496 -0.942,-7.848 -0.157,-1.182 0.672,-2.267 1.855,-2.426 1.191,-0.153 2.267,0.673 2.425,1.855 0.239,1.792 0.503,3.826 0.737,5.908 12.1,-0.787 24.287,-0.867 36.093,-0.945 7.701,-0.051 15.64,-0.102 23.501,-0.351 -0.365,-2.148 -0.712,-4.36 -0.712,-6.616 0,-0.457 0.013,-0.912 0.044,-1.366 0.08,-1.191 1.103,-2.089 2.3,-2.01 1.19,0.082 2.089,1.11 2.009,2.3 -0.024,0.358 -0.034,0.718 -0.034,1.077 0,2.097 0.365,4.225 0.751,6.477 0.108,0.626 0.214,1.25 0.313,1.874 0.097,0.61 -0.072,1.233 -0.465,1.709 -0.392,0.478 -0.97,0.765 -1.588,0.787 -8.724,0.325 -17.553,0.382 -26.091,0.438 -12.414,0.082 -25.251,0.166 -37.892,1.077 -0.053,0.004 -0.106,0.005 -0.158,0.005 z"
   id="path58" />
		</g>
		<g
   id="g64"
   style="fill:#ffffff"
   transform="translate(-4.962158,-8.979143)">
			<path
   style="fill:#ffffff"
   d="m 93.281,156.529 c -0.409,0 -0.821,-0.115 -1.184,-0.354 -2.186,-1.435 -4.356,-2.944 -6.455,-4.402 -0.904,-0.628 -1.81,-1.259 -2.723,-1.888 -0.512,-0.351 -0.847,-0.907 -0.92,-1.522 -0.074,-0.617 0.122,-1.236 0.536,-1.697 2.643,-2.949 5.41,-5.769 7.767,-8.139 0.815,-0.819 2.129,-0.852 2.983,-0.076 2.527,2.297 5.322,4.417 8.309,6.297 0.538,0.34 0.899,0.898 0.987,1.528 0.089,0.63 -0.106,1.266 -0.53,1.74 -1.286,1.435 -2.596,2.848 -3.913,4.266 -1.085,1.169 -2.174,2.343 -3.255,3.537 -0.424,0.467 -1.01,0.71 -1.602,0.71 z m -5.879,-8.792 c 0.235,0.163 0.47,0.326 0.704,0.489 1.581,1.099 3.202,2.227 4.83,3.321 0.678,-0.739 1.358,-1.472 2.037,-2.203 0.727,-0.784 1.453,-1.566 2.174,-2.352 -1.818,-1.248 -3.562,-2.579 -5.212,-3.979 -1.446,1.468 -2.994,3.065 -4.533,4.724 z"
   id="path62" />
		</g>
		<g
   id="g68"
   style="fill:#ffffff"
   transform="translate(-4.962158,-8.979143)">
			<path
   style="fill:#ffffff"
   d="m 50.166,165.006 c -2.657,0 -5.59,-0.121 -7.889,-2.415 -2.688,-2.681 -3.887,-7.791 -3.887,-16.571 0,-42.875 11.188,-46.934 25.814,-47.786 4.729,-0.275 8.812,-0.515 11.692,-3.673 0.856,-0.939 1.29,-2.137 1.29,-3.558 0,-4.965 -2.319,-6.143 -5.256,-7.633 -1.775,-0.902 -3.611,-1.834 -4.711,-3.695 -1.741,-2.946 -1.685,-4.702 -1.463,-6.386 0.178,-1.347 0.362,-2.74 -6.017,-9.118 -0.837,-0.835 -1.318,-2.103 -1.318,-3.476 0,-1.934 1.015,-3.525 1.91,-4.928 0.567,-0.89 1.153,-1.808 1.197,-2.429 l -0.07,-0.697 c -0.439,-4.248 -1.021,-10.197 -1.021,-12.784 0,-17.828 16.308,-20.231 32.261,-20.231 16.572,0 21.884,2.298 26.272,4.859 0.598,0.35 0.992,0.966 1.06,1.654 0.067,0.69 -0.2,1.37 -0.719,1.829 -9.192,8.119 -22.478,11.871 -37.949,10.676 -0.262,0.954 -0.32,1.955 -0.384,3.059 -0.234,4.065 -0.525,9.125 -11.379,14.058 -1.084,0.498 -2.364,0.014 -2.859,-1.071 -0.493,-1.086 -0.013,-2.366 1.072,-2.859 8.479,-3.854 8.645,-6.732 8.854,-10.375 0.107,-1.847 0.227,-3.94 1.387,-6.117 0.412,-0.772 1.246,-1.216 2.118,-1.134 2.291,0.228 4.566,0.343 6.761,0.343 7.65,0 18.236,-1.413 27.005,-7.797 -3.686,-1.593 -9.237,-2.806 -21.241,-2.806 -20.108,0 -27.943,4.461 -27.943,15.913 0,2.665 0.751,9.949 0.997,12.342 0.067,0.647 0.096,1.037 0.096,1.068 0,1.881 -0.997,3.444 -1.878,4.823 -0.606,0.95 -1.232,1.931 -1.232,2.606 0,0.239 0.066,0.426 0.096,0.474 7.294,7.285 7.589,9.755 7.202,12.686 -0.132,0.998 -0.227,1.718 0.9,3.625 0.459,0.776 1.612,1.362 2.948,2.04 3.034,1.541 7.619,3.87 7.619,11.484 0,2.496 -0.836,4.731 -2.418,6.467 -4.064,4.457 -9.436,4.771 -14.631,5.073 -10.692,0.624 -21.747,1.268 -21.747,43.476 0,7.235 0.881,11.782 2.617,13.514 1.113,1.11 2.654,1.15 5.301,1.154 l 0.509,-0.001 c 2.08,0 4.147,-0.176 6.333,-0.361 1.416,-0.119 2.833,-0.24 4.249,-0.311 1.207,-0.031 2.205,0.857 2.264,2.048 0.06,1.191 -0.857,2.205 -2.048,2.264 -1.367,0.069 -2.734,0.186 -4.1,0.301 -2.18,0.186 -4.435,0.377 -6.699,0.377 l -0.497,0.001 c -0.151,-0.002 -0.309,-0.002 -0.468,-0.002 z"
   id="path66" />
		</g>
		<g
   id="g72"
   style="fill:#ffffff"
   transform="translate(-4.962158,-8.979143)">
			<path
   style="fill:#ffffff"
   d="m 127.461,164.582 c -0.905,0 -1.751,-0.571 -2.053,-1.475 -0.377,-1.132 0.226,-2.352 1.358,-2.728 7.387,-2.463 9.871,-3.291 9.871,-25.761 0,-31.215 -14.285,-31.7 -26.888,-32.127 -7.179,-0.245 -15.317,-0.52 -15.317,-9.612 0,-6.254 2.847,-8.205 5.358,-9.927 3.003,-2.059 6.407,-4.393 6.407,-17.351 0,-5.317 -0.748,-10.846 -1.472,-16.191 -0.612,-4.525 -1.245,-9.204 -1.437,-13.795 -0.05,-1.192 0.876,-2.197 2.067,-2.248 1.193,-0.073 2.198,0.876 2.247,2.068 0.183,4.391 0.803,8.969 1.402,13.396 0.743,5.488 1.511,11.162 1.511,16.771 0,14.087 -3.752,17.805 -8.283,20.912 -2.245,1.539 -3.482,2.388 -3.482,6.366 0,4.515 2.889,5.015 11.145,5.295 12.368,0.42 31.06,1.056 31.06,36.444 0,24.344 -3.291,26.68 -12.808,29.852 -0.227,0.074 -0.458,0.111 -0.686,0.111 z"
   id="path70" />
		</g>
		
		
		<g
   id="g84"
   style="fill:#ffffff"
   transform="translate(-4.962158,-8.979143)">
			<path
   style="fill:#ffffff"
   d="m 79.562,109.263 c -0.522,0 -1.042,-0.188 -1.449,-0.558 -0.98,-0.887 -1.909,-1.816 -2.808,-2.714 -1.382,-1.382 -2.687,-2.686 -4.141,-3.829 -0.938,-0.737 -1.101,-2.094 -0.364,-3.032 0.736,-0.939 2.094,-1.101 3.032,-0.364 1.657,1.303 3.116,2.761 4.526,4.172 0.486,0.485 0.971,0.97 1.464,1.448 0.485,-0.297 0.974,-0.59 1.463,-0.884 1.905,-1.143 3.705,-2.222 5.27,-3.546 0.577,-0.488 1.368,-0.637 2.081,-0.398 3.154,1.057 6.103,2.484 9.059,4.013 1.122,-0.963 2.272,-1.86 3.393,-2.734 0.994,-0.776 1.99,-1.55 2.957,-2.367 0.912,-0.77 2.272,-0.655 3.043,0.259 0.769,0.911 0.654,2.273 -0.258,3.042 -1.01,0.852 -2.048,1.663 -3.087,2.473 -1.503,1.172 -2.922,2.279 -4.264,3.517 -0.671,0.62 -1.656,0.749 -2.467,0.325 -2.992,-1.569 -5.74,-2.97 -8.65,-4.045 -1.563,1.191 -3.232,2.191 -4.856,3.165 -0.93,0.558 -1.86,1.116 -2.762,1.707 -0.361,0.233 -0.773,0.35 -1.182,0.35 z"
   id="path82" />
		</g>
		<g
   id="g88"
   style="fill:#ffffff"
   transform="translate(-4.962158,-8.979143)">
			<path
   style="fill:#ffffff"
   d="m 87.624,100.315 c -3.195,0 -6.618,-0.148 -11.096,-0.478 -1.189,-0.089 -2.082,-1.123 -1.995,-2.312 0.089,-1.189 1.123,-2.092 2.312,-1.995 4.369,0.323 7.693,0.467 10.778,0.467 3.121,0 5.99,-0.15 8.773,-0.46 1.182,-0.122 2.253,0.723 2.384,1.909 0.131,1.185 -0.723,2.252 -1.907,2.384 -2.941,0.326 -5.967,0.485 -9.249,0.485 z"
   id="path86" />
		</g>
		<g
   id="g92"
   style="fill:#ffffff"
   transform="translate(-4.962158,-8.979143)">
			<path
   style="fill:#ffffff"
   d="m 78.931,61.94 c -0.505,0 -1.011,-0.176 -1.421,-0.534 -0.898,-0.786 -0.988,-2.149 -0.203,-3.047 2.3,-2.627 5.641,-2.981 8.607,-2.981 1.193,0 2.159,0.967 2.159,2.159 0,1.192 -0.966,2.159 -2.159,2.159 -2.097,0 -4.198,0.183 -5.357,1.508 -0.428,0.487 -1.025,0.736 -1.626,0.736 z"
   id="path90" />
		</g>
		<g
   id="g96"
   style="fill:#ffffff"
   transform="translate(-4.962158,-8.979143)">
			<path
   style="fill:#ffffff"
   d="m 96.386,60.693 c -0.552,0 -1.104,-0.211 -1.525,-0.631 -0.844,-0.842 -0.846,-2.21 -0.003,-3.053 0.973,-0.976 2.326,-1.261 3.862,-1.116 0.242,0.022 0.486,0.069 0.739,0.024 1.169,-0.232 2.305,0.531 2.536,1.701 0.231,1.169 -0.531,2.305 -1.701,2.536 -0.622,0.124 -1.314,0.103 -1.979,0.038 -0.171,-0.015 -0.34,-0.035 -0.504,-0.035 -0.406,0.357 -0.916,0.536 -1.425,0.536 z"
   id="path94" />
		</g>
		<g
   id="g100"
   style="fill:#ffffff"
   transform="translate(-4.962158,-8.979143)">
			<path
   style="fill:#ffffff"
   d="m 87.163,77.93 c -0.749,0 -1.459,-0.198 -2.111,-0.588 -1.016,-0.609 -1.334,-1.912 -0.735,-2.934 0.587,-1.001 1.872,-1.345 2.889,-0.807 0.219,-0.058 0.716,-0.284 1.043,-0.493 0.006,-0.309 0.015,-0.618 0.025,-0.928 0.015,-0.477 0.03,-0.953 0.03,-1.43 0,-1.022 -0.077,-1.784 -0.247,-2.467 -0.29,-1.157 0.413,-2.329 1.57,-2.619 1.153,-0.285 2.329,0.413 2.619,1.57 0.261,1.04 0.377,2.125 0.377,3.516 0,0.521 -0.016,1.043 -0.032,1.564 -0.015,0.477 -0.03,0.953 -0.03,1.428 0,2.749 -4.01,4.188 -5.398,4.188 z"
   id="path98" />
		</g>
		<g
   id="g104"
   style="fill:#ffffff"
   transform="translate(-4.962158,-8.979143)">
			<path
   style="fill:#ffffff"
   d="m 88.277,113.542 c -3.433,0 -6.601,-1.722 -8.69,-4.726 -0.681,-0.978 -0.439,-2.323 0.539,-3.005 0.98,-0.68 2.325,-0.439 3.006,0.54 1.271,1.826 3.146,2.873 5.145,2.873 1.204,0 4.088,-0.33 4.853,-3.393 0.288,-1.155 1.458,-1.861 2.618,-1.57 1.157,0.29 1.86,1.462 1.571,2.619 -1.028,4.109 -4.492,6.662 -9.042,6.662 z"
   id="path102" />
		</g>
		<g
   id="g108"
   style="fill:#ffffff"
   transform="translate(-4.962158,-8.979143)">
			<path
   style="fill:#ffffff"
   d="m 81.887,124.133 c -0.173,0 -0.349,-0.021 -0.525,-0.065 -1.157,-0.29 -1.86,-1.462 -1.571,-2.619 0.441,-1.766 1.068,-3.442 1.675,-5.065 0.423,-1.131 0.822,-2.2 1.167,-3.303 0.356,-1.139 1.565,-1.775 2.705,-1.417 1.139,0.356 1.772,1.567 1.417,2.704 -0.38,1.217 -0.819,2.391 -1.244,3.528 -0.59,1.579 -1.148,3.071 -1.531,4.601 -0.246,0.983 -1.125,1.636 -2.093,1.636 z"
   id="path106" />
		</g>
		<g
   id="g112"
   style="fill:#ffffff"
   transform="translate(-4.962158,-8.979143)">
			<path
   style="fill:#ffffff"
   d="m 96.278,122.905 c -0.904,0 -1.746,-0.571 -2.048,-1.476 -1.032,-3.092 -2.614,-5.824 -4.171,-8.314 -0.632,-1.011 -0.325,-2.343 0.687,-2.976 1.011,-0.631 2.342,-0.323 2.975,0.687 1.698,2.717 3.431,5.717 4.605,9.236 0.377,1.131 -0.234,2.354 -1.365,2.731 -0.227,0.077 -0.457,0.112 -0.683,0.112 z"
   id="path110" />
		</g>
		
		
		
		
		<g
   id="g132"
   style="fill:#ffffff"
   transform="translate(-4.962158,-8.979143)">
			<path
   style="fill:#ffffff"
   d="m 132.741,84.116 c -1.125,0 -2.074,-0.872 -2.152,-2.012 -0.637,-9.322 -0.779,-18.703 -0.915,-27.775 -0.058,-3.837 -0.115,-7.68 -0.209,-11.536 -0.015,-0.602 0.223,-1.184 0.656,-1.602 0.432,-0.419 1.025,-0.626 1.622,-0.606 1.696,0.094 3.378,0.202 5.06,0.311 1.486,0.096 2.974,0.191 4.471,0.278 1.152,0.065 2.049,1.026 2.035,2.18 -0.03,2.584 -0.045,5.167 -0.045,7.751 0,10.029 0.221,19.01 0.737,30.027 0.056,1.191 -0.864,2.203 -2.056,2.258 -1.187,0.066 -2.201,-0.864 -2.258,-2.055 -0.519,-11.089 -0.741,-20.129 -0.741,-30.23 0,-1.915 0.008,-3.829 0.025,-5.743 -0.816,-0.051 -1.631,-0.104 -2.445,-0.156 -0.896,-0.058 -1.792,-0.115 -2.691,-0.172 0.065,3.083 0.111,6.158 0.157,9.229 0.135,9.016 0.275,18.339 0.905,27.546 0.081,1.191 -0.817,2.221 -2.006,2.301 -0.051,0.005 -0.101,0.006 -0.15,0.006 z"
   id="path130" />
		</g>
		<g
   id="g136"
   style="fill:#ffffff"
   transform="translate(-4.962158,-8.979143)">
			<path
   style="fill:#ffffff"
   d="m 151.05,83.589 c -1.089,0 -2.026,-0.821 -2.144,-1.929 -0.811,-7.565 -0.921,-15.06 -0.921,-21.394 0,-2.376 0.017,-4.751 0.034,-7.126 0.017,-2.366 0.034,-4.733 0.034,-7.099 l -0.003,-1.787 c -0.006,-1.186 0.948,-2.156 2.135,-2.169 0.906,-0.01 1.815,-0.013 2.725,-0.017 2.006,-0.007 4.081,-0.014 6.098,-0.098 1.223,-0.037 2.196,0.874 2.247,2.065 l 0.122,2.827 c 0.501,11.691 0.974,22.735 1.888,34.175 0.095,1.188 -0.791,2.229 -1.98,2.324 -1.21,0.079 -2.23,-0.793 -2.324,-1.981 -0.921,-11.519 -1.418,-23.117 -1.898,-34.334 l -0.03,-0.696 c -1.383,0.028 -2.76,0.032 -4.107,0.037 -0.185,10e-4 -0.37,10e-4 -0.554,0.003 -0.001,2.26 -0.018,4.52 -0.034,6.781 -0.017,2.366 -0.034,4.73 -0.034,7.096 0,6.22 0.106,13.571 0.895,20.933 0.127,1.186 -0.731,2.25 -1.917,2.377 -0.077,0.008 -0.154,0.012 -0.232,0.012 z"
   id="path134" />
		</g>
		<g
   id="g140"
   style="fill:#ffffff"
   transform="translate(-4.962158,-8.979143)">
			<path
   style="fill:#ffffff"
   d="m 147.106,57.648 h -5.261 c -1.193,0 -2.159,-0.967 -2.159,-2.159 0,-1.192 0.966,-2.159 2.159,-2.159 h 5.261 c 1.193,0 2.159,0.967 2.159,2.159 0,1.192 -0.966,2.159 -2.159,2.159 z"
   id="path138" />
		</g>
		<g
   id="g144"
   style="fill:#ffffff"
   transform="translate(-4.962158,-8.979143)">
			<path
   style="fill:#ffffff"
   d="m 172.444,82.264 c -0.165,0 -0.331,-0.018 -0.494,-0.058 -0.587,-0.138 -1.09,-0.514 -1.386,-1.04 -2.022,-3.583 -3.908,-7.292 -5.731,-10.881 -1.759,-3.462 -3.578,-7.041 -5.511,-10.487 -0.281,-0.5 -0.351,-1.094 -0.194,-1.646 0.157,-0.552 0.529,-1.021 1.031,-1.299 1.401,-0.776 2.707,-1.671 4.09,-2.62 1.006,-0.69 2.012,-1.379 3.052,-2.021 0.495,-0.305 1.093,-0.399 1.657,-0.257 0.565,0.141 1.049,0.503 1.342,1.005 1.872,3.203 3.832,6.417 5.729,9.523 2.23,3.655 4.536,7.434 6.727,11.245 0.583,1.015 0.252,2.309 -0.746,2.919 l -1.29,0.786 c -2.349,1.431 -4.778,2.911 -7.067,4.46 -0.359,0.244 -0.781,0.371 -1.209,0.371 z m -8.34,-22.739 c 1.596,2.935 3.109,5.911 4.579,8.805 1.458,2.868 2.955,5.814 4.52,8.688 1.58,-1.018 3.182,-1.999 4.755,-2.957 -1.845,-3.151 -3.756,-6.283 -5.614,-9.329 -1.523,-2.496 -3.087,-5.06 -4.62,-7.641 -0.344,0.233 -0.687,0.468 -1.03,0.703 -0.842,0.575 -1.699,1.164 -2.59,1.731 z"
   id="path142" />
		</g>
		<g
   id="g148"
   style="fill:#ffffff"
   transform="matrix(1,0,0,1.4718227,-4.962158,-45.725862)">
			<path
   style="fill:#ffffff"
   d="m 126.936,84.393 c -1.139,0 -2.091,-0.891 -2.153,-2.042 -0.065,-1.191 0.848,-2.208 2.038,-2.273 8.856,-0.481 17.797,-0.67 26.443,-0.853 11.065,-0.235 22.507,-0.476 33.796,-1.337 1.188,-0.084 2.226,0.8 2.317,1.989 0.091,1.189 -0.8,2.226 -1.989,2.318 -11.407,0.867 -22.908,1.11 -34.032,1.347 -8.612,0.183 -17.516,0.371 -26.3,0.849 -0.041,10e-4 -0.081,0.002 -0.12,0.002 z"
   id="path146" />
		</g>
		
		
		
		
		
		
		
		
		
		
		
		<g
   id="g196"
   style="fill:#ffffff"
   transform="translate(-4.962158,-8.979143)">
			<path
   style="fill:#ffffff"
   d="m 24.457,196.571 c -5.607,0 -8.992,0 -11.041,-2.059 -2.024,-2.034 -2.01,-5.091 -1.981,-11.182 l 0.008,-2.582 c 0,-1.642 -0.006,-3.199 -0.012,-4.677 -0.096,-24.337 0.744,-28.952 27.912,-29.996 1.19,-0.039 2.194,0.883 2.241,2.075 0.046,1.192 -0.883,2.194 -2.075,2.241 -23.858,0.916 -23.852,2.315 -23.76,25.664 0.006,1.483 0.012,3.046 0.012,4.693 l -0.008,2.602 c -0.02,4.269 -0.035,7.354 0.723,8.116 0.784,0.787 4.119,0.787 7.981,0.787 1.974,0 4.003,-0.089 5.966,-0.174 2.01,-0.087 4.088,-0.178 6.157,-0.178 11.446,0 23.199,-1.016 34.565,-1.997 11.465,-0.991 23.321,-2.016 34.969,-2.016 0.157,0 0.808,0.008 1.803,0.021 3.253,0.041 10.022,0.125 15.413,0.125 0.024,0 0.048,0 0.072,0 7.191,0 41.286,-0.097 57.271,-1.902 0.024,-1.397 0.036,-2.797 0.036,-4.197 0,-8.383 -0.414,-16.959 -0.814,-25.251 -0.108,-2.224 -0.215,-4.446 -0.314,-6.664 -1.274,-0.396 -4.389,-0.544 -13.295,-0.932 -4.961,-0.215 -11.665,-0.507 -20.798,-0.975 -1.191,-0.06 -2.107,-1.075 -2.046,-2.267 0.061,-1.19 1.089,-2.09 2.267,-2.045 9.118,0.468 15.811,0.759 20.765,0.974 13.609,0.592 14.721,0.64 16.655,2.376 0.432,0.388 0.689,0.932 0.715,1.512 0.113,2.601 0.239,5.205 0.365,7.814 0.402,8.344 0.819,16.972 0.819,25.459 0,2.058 -0.024,4.116 -0.078,6.168 -0.028,1.06 -0.82,1.943 -1.871,2.083 -15.311,2.059 -52.148,2.166 -59.582,2.166 -5.538,0.034 -12.357,-0.087 -15.633,-0.127 -0.966,-0.011 -1.596,-0.02 -1.749,-0.02 -11.462,0 -23.224,1.016 -34.598,1.999 -11.457,0.991 -23.304,2.014 -34.936,2.014 -1.974,0 -4.005,0.089 -5.968,0.174 -2.011,0.087 -4.089,0.178 -6.156,0.178 z"
   id="path194" />
		</g>
		<g
   id="g200"
   style="fill:#ffffff"
   transform="translate(-4.962158,-8.979143)">
			<path
   style="fill:#ffffff"
   d="m 159.792,177.539 c -6.304,0 -10.069,-4.234 -10.069,-11.325 0,-5.793 2.96,-12.027 9.461,-12.027 0.613,0 1.247,0.059 1.886,0.176 0.534,0.097 1.146,0.131 1.794,0.166 1.931,0.105 4.334,0.238 6.03,2.291 1.878,2.273 2.87,5.041 2.87,8.002 0,6.893 -5.482,12.717 -11.972,12.717 z m -0.608,-19.034 c -4.059,0 -5.142,4.845 -5.142,7.709 0,4.715 1.881,7.007 5.75,7.007 4.579,0 7.654,-4.342 7.654,-8.399 0,-1.945 -0.651,-3.763 -1.882,-5.253 -0.467,-0.567 -1.421,-0.645 -2.938,-0.73 -0.752,-0.041 -1.53,-0.083 -2.33,-0.229 -0.384,-0.07 -0.758,-0.105 -1.112,-0.105 z"
   id="path198" />
		</g>
		
		
		
		
	</g>
</g>
<g
   id="Layer_1">
</g>
</svg>
