<?xml version="1.0" encoding="UTF-8" standalone="no"?>
<!-- Generator: Adobe Illustrator 21.0.2, SVG Export Plug-In . SVG Version: 6.00 Build 0)  -->

<svg
   version="1.1"
   x="0px"
   y="0px"
   viewBox="0 0 222.648 176.536"
   style="enable-background:new 0 0 222.648 176.536;"
   xml:space="preserve"
   id="svg110"
   sodipodi:docname="venta.svg"
   inkscape:version="1.1 (c68e22c387, 2021-05-23)"
   xmlns:inkscape="http://www.inkscape.org/namespaces/inkscape"
   xmlns:sodipodi="http://sodipodi.sourceforge.net/DTD/sodipodi-0.dtd"
   xmlns="http://www.w3.org/2000/svg"
   xmlns:svg="http://www.w3.org/2000/svg"><defs
   id="defs114" /><sodipodi:namedview
   id="namedview112"
   pagecolor="#505050"
   bordercolor="#eeeeee"
   borderopacity="1"
   inkscape:pageshadow="0"
   inkscape:pageopacity="0"
   inkscape:pagecheckerboard="0"
   showgrid="false"
   inkscape:zoom="4.2654191"
   inkscape:cx="111.24347"
   inkscape:cy="88.150776"
   inkscape:window-width="3840"
   inkscape:window-height="2050"
   inkscape:window-x="2928"
   inkscape:window-y="-12"
   inkscape:window-maximized="1"
   inkscape:current-layer="g104" />
<g
   id="_x37_4">
	<g
   id="g106">
		
		<g
   id="g104"
   transform="matrix(0.84300058,0,0,0.9189782,21.334361,11.956622)"
   style="fill:#ffffff">
			<g
   id="g34"
   style="fill:#ffffff">
				<path
   style="fill:#ffffff"
   d="m 111.676,121.16 c -6.093,0 -10.715,-0.352 -15.61,-0.725 C 89.822,119.959 82.743,119.42 70.706,119.42 45.48,119.42 38.155,88.351 31.071,58.306 25.619,35.181 19.981,11.269 6.394,4.475 5.328,3.942 4.896,2.645 5.428,1.578 5.963,0.513 7.261,0.082 8.325,0.612 23.72,8.31 29.333,32.114 35.274,57.315 c 6.699,28.41 13.625,57.787 35.432,57.787 12.202,0 19.367,0.545 25.688,1.027 5.02,0.382 9.354,0.713 15.282,0.713 43.094,0 44.579,-6.958 47.537,-20.822 1.002,-4.692 2.137,-10.01 4.809,-16.084 0.481,-1.091 1.757,-1.586 2.846,-1.107 1.091,0.48 1.587,1.754 1.107,2.846 -2.494,5.669 -3.58,10.757 -4.538,15.246 -3.588,16.808 -7.057,24.239 -51.761,24.239 z"
   id="path32" />
			</g>
			<g
   id="g38"
   style="fill:#ffffff">
				<path
   style="fill:#ffffff"
   d="M 12.386,23.74 C 6.23,23.74 0,19.509 0,11.421 0,6.908 2.16,2.775 5.778,0.363 6.77,-0.299 8.11,-0.03 8.772,0.962 9.433,1.954 9.166,3.295 8.173,3.956 5.795,5.541 4.318,8.401 4.318,11.421 c 0,6.316 5.071,8.002 8.068,8.002 2.321,0 4.807,-1.867 4.807,-4.647 0,-0.796 -0.205,-1.61 -0.61,-2.419 -0.533,-1.067 -0.101,-2.364 0.966,-2.897 1.067,-0.533 2.363,-0.1 2.897,0.966 0.707,1.414 1.065,2.878 1.065,4.35 -10e-4,4.859 -4.179,8.964 -9.125,8.964 z"
   id="path36" />
			</g>
			
			<g
   id="g46"
   style="fill:#ffffff">
				<path
   style="fill:#ffffff"
   d="m 30.36,51.518 c -1.099,0 -2.039,-0.836 -2.146,-1.953 -0.114,-1.187 0.756,-2.241 1.943,-2.355 6.998,-0.671 14.261,-1.359 21.454,-1.058 l 86.611,-2.12 c 1.202,-0.063 2.182,0.914 2.211,2.106 0.03,1.192 -0.914,2.182 -2.106,2.211 l -86.683,2.122 c -0.05,0.002 -0.097,0.001 -0.146,-10e-4 -6.947,-0.299 -14.048,0.38 -20.929,1.039 -0.071,0.007 -0.141,0.009 -0.209,0.009 z"
   id="path44" />
			</g>
			<g
   id="g50"
   style="fill:#ffffff">
				<path
   style="fill:#ffffff"
   d="m 94.251,110.833 c -36.503,0 -38.167,-2.688 -48.331,-32.385 -2.039,-5.956 -4.575,-13.368 -7.886,-22.058 -0.424,-1.115 0.135,-2.362 1.249,-2.787 1.115,-0.427 2.361,0.135 2.787,1.249 3.337,8.76 5.887,16.21 7.936,22.197 5.149,15.046 7.734,22.598 13.956,26.056 6.45,3.585 17.519,3.513 39.559,3.372 4.795,-0.031 10.1,-0.065 15.985,-0.065 27.482,0 28.203,-2.021 32.899,-15.17 1.423,-3.984 3.194,-8.943 6.083,-15.01 0.513,-1.077 1.8,-1.534 2.878,-1.021 1.077,0.513 1.534,1.801 1.021,2.878 -2.795,5.869 -4.525,10.713 -5.916,14.606 -5.315,14.885 -7.469,18.036 -36.965,18.036 -5.874,0 -11.171,0.035 -15.957,0.065 -3.329,0.02 -6.423,0.037 -9.298,0.037 z"
   id="path48" />
			</g>
			<g
   id="g54"
   style="fill:#ffffff">
				<path
   style="fill:#ffffff"
   d="m 48.243,167.828 c -0.205,0 -0.411,-0.003 -0.619,-0.009 -9.39,-0.287 -16.555,-7.043 -17.038,-16.065 -0.271,-5.074 1.648,-10.197 5.268,-14.058 3.376,-3.601 7.82,-5.613 12.512,-5.665 0.453,-0.007 0.902,0.008 1.356,0.041 5.854,0.41 10.845,3.026 14.054,7.364 2.099,2.837 3.095,7.07 3.152,10.007 0.087,4.454 -2.117,9.454 -5.752,13.049 -2.487,2.459 -6.725,5.336 -12.933,5.336 z m 0.306,-31.479 c -0.046,0 -0.091,0 -0.136,0.001 -3.504,0.039 -6.846,1.566 -9.409,4.3 -2.777,2.962 -4.312,7.027 -4.105,10.874 0.408,7.619 6.777,11.794 12.857,11.979 4.99,0.144 8.415,-2.134 10.383,-4.08 2.78,-2.749 4.535,-6.633 4.471,-9.894 -0.036,-1.819 -0.679,-5.322 -2.307,-7.523 -3.134,-4.238 -7.648,-5.398 -10.884,-5.625 -0.293,-0.023 -0.582,-0.032 -0.87,-0.032 z"
   id="path52" />
			</g>
			<g
   id="g58"
   style="fill:#ffffff">
				<path
   style="fill:#ffffff"
   d="m 48.995,159.347 c -2.719,0 -5.3,-0.974 -7.201,-2.742 -1.927,-1.792 -2.971,-4.248 -2.938,-6.915 0.05,-4.024 2.399,-7.386 5.985,-8.567 1.457,-0.479 2.853,-0.709 4.157,-0.673 4.887,0.118 9.156,4.172 9.32,8.853 0.179,5.109 -3.569,9.597 -8.354,10.003 -0.324,0.027 -0.647,0.04 -0.969,0.041 z m -0.248,-14.582 c -0.77,0 -1.628,0.154 -2.555,0.46 -2.196,0.723 -2.998,2.886 -3.018,4.518 -0.022,1.837 0.836,3.026 1.561,3.7 1.235,1.149 3.011,1.718 4.863,1.56 2.486,-0.211 4.502,-2.752 4.404,-5.549 -0.082,-2.348 -2.566,-4.626 -5.112,-4.687 -0.046,-0.002 -0.094,-0.002 -0.143,-0.002 z"
   id="path56" />
			</g>
			<g
   id="g62"
   style="fill:#ffffff">
				<path
   style="fill:#ffffff"
   d="m 152.088,167.828 c -0.204,0 -0.41,-0.003 -0.618,-0.009 -9.389,-0.287 -16.555,-7.042 -17.039,-16.064 -0.271,-5.074 1.649,-10.199 5.268,-14.059 3.376,-3.6 7.82,-5.612 12.512,-5.664 0.453,-0.005 0.904,0.008 1.358,0.041 5.854,0.411 10.844,3.026 14.052,7.364 2.099,2.839 3.095,7.072 3.151,10.007 0.087,4.453 -2.117,9.453 -5.752,13.048 -2.486,2.459 -6.723,5.336 -12.932,5.336 z m 0.306,-31.479 c -0.045,0 -0.091,0 -0.136,0.001 -3.504,0.039 -6.845,1.565 -9.409,4.299 -2.777,2.962 -4.312,7.027 -4.106,10.875 0.408,7.619 6.777,11.794 12.858,11.979 4.993,0.144 8.414,-2.134 10.383,-4.08 2.78,-2.749 4.535,-6.633 4.471,-9.894 -0.035,-1.818 -0.678,-5.321 -2.307,-7.523 -3.134,-4.238 -7.649,-5.398 -10.885,-5.625 -0.291,-0.023 -0.58,-0.032 -0.869,-0.032 z"
   id="path60" />
			</g>
			<g
   id="g66"
   style="fill:#ffffff">
				<path
   style="fill:#ffffff"
   d="m 152.842,159.347 c -2.719,0 -5.3,-0.974 -7.201,-2.742 -1.927,-1.792 -2.971,-4.248 -2.938,-6.915 0.05,-4.024 2.399,-7.386 5.985,-8.567 1.457,-0.48 2.871,-0.701 4.157,-0.673 4.887,0.118 9.156,4.172 9.32,8.853 0.179,5.109 -3.569,9.597 -8.354,10.003 -0.325,0.027 -0.648,0.04 -0.969,0.041 z m -0.248,-14.582 c -0.771,0 -1.629,0.154 -2.555,0.46 -2.196,0.723 -2.999,2.886 -3.019,4.518 -0.023,1.837 0.836,3.026 1.561,3.7 1.235,1.149 3.014,1.718 4.863,1.56 2.485,-0.211 4.502,-2.753 4.405,-5.55 -0.082,-2.347 -2.566,-4.625 -5.112,-4.686 -0.047,-0.002 -0.095,-0.002 -0.143,-0.002 z"
   id="path64" />
			</g>
			<g
   id="g70"
   style="fill:#ffffff">
				<path
   style="fill:#ffffff"
   d="m 51.209,136.242 c -0.118,0 -0.237,-0.009 -0.358,-0.03 -1.177,-0.196 -1.971,-1.309 -1.775,-2.484 1.072,-6.435 2.62,-13.916 5.968,-20.611 0.534,-1.066 1.832,-1.497 2.897,-0.966 1.066,0.533 1.498,1.83 0.966,2.897 -3.092,6.183 -4.552,13.271 -5.571,19.389 -0.176,1.057 -1.091,1.805 -2.127,1.805 z"
   id="path68" />
			</g>
			<g
   id="g74"
   style="fill:#ffffff">
				<path
   style="fill:#ffffff"
   d="m 65.99,146.321 c -0.634,0 -1.236,-0.253 -1.695,-0.712 -0.843,-0.843 -0.843,-2.21 0,-3.053 0.286,-0.287 0.633,-0.476 1,-0.568 0.464,-0.352 1.278,-0.664 2.094,-0.456 l 69.55,-1.147 c 1.242,0.007 2.175,0.931 2.195,2.123 0.02,1.193 -0.931,2.175 -2.123,2.195 l -69.589,1.147 c -0.35,0.248 -0.821,0.471 -1.432,0.471 z"
   id="path72" />
			</g>
			
			<g
   id="g82"
   style="fill:#ffffff">
				<path
   style="fill:#ffffff"
   d="m 176.225,81.675 c -0.235,0 -0.47,-0.002 -0.706,-0.006 -22.508,-0.387 -39.981,-18.577 -39.778,-41.411 0.193,-22.495 18.349,-40.002 41.4,-40.002 0.119,0 0.237,0.001 0.356,0.001 5.655,0.044 11.096,1.167 16.174,3.336 2.793,1.192 5.294,2.553 7.871,4.283 9.849,6.609 16.315,19.2 16.473,32.075 0.141,11.1 -4.142,21.555 -12.059,29.435 -7.87,7.834 -18.67,12.289 -29.731,12.289 z m 0.918,-77.1 c -20.65,0 -36.912,15.633 -37.084,35.721 -0.181,20.434 15.427,36.711 35.534,37.056 10.159,0.2 20.103,-3.844 27.315,-11.025 7.082,-7.05 10.913,-16.398 10.788,-26.322 -0.138,-11.321 -5.989,-22.791 -14.561,-28.543 -2.347,-1.576 -4.622,-2.814 -7.16,-3.896 -4.55,-1.944 -9.432,-2.949 -14.512,-2.989 -0.107,-0.002 -0.214,-0.002 -0.32,-0.002 z"
   id="path80" />
			</g>
			<g
   id="g86"
   style="fill:#ffffff">
				<path
   style="fill:#ffffff"
   d="m 169.31,64.503 c -0.096,0 -0.193,-0.006 -0.29,-0.02 -0.607,-0.082 -1.15,-0.418 -1.495,-0.924 -2.599,-3.816 -5.064,-7.777 -7.448,-11.608 -2.781,-4.468 -5.657,-9.087 -8.719,-13.43 -0.675,-0.959 -0.462,-2.281 0.48,-2.979 2.507,-1.856 5.119,-3.601 7.646,-5.289 1.559,-1.042 3.121,-2.084 4.668,-3.16 0.479,-0.332 1.07,-0.457 1.64,-0.347 0.571,0.11 1.073,0.446 1.394,0.931 0.797,1.207 1.569,2.439 2.342,3.671 1.443,2.302 2.824,4.504 4.348,6.539 4.998,-4.198 10.244,-8.409 15.979,-12.825 0.915,-0.704 2.222,-0.564 2.967,0.318 1.059,1.252 2.099,2.524 3.138,3.795 1.657,2.025 3.371,4.12 5.121,6.082 0.393,0.44 0.588,1.021 0.541,1.609 -0.047,0.588 -0.333,1.131 -0.79,1.503 -6.725,5.469 -13.391,11.222 -19.837,16.788 -3.421,2.952 -6.842,5.905 -10.288,8.832 -0.392,0.334 -0.888,0.514 -1.397,0.514 z M 156.104,37.784 c 2.675,3.91 5.194,7.956 7.64,11.885 1.944,3.123 3.943,6.334 6.011,9.461 2.817,-2.404 5.619,-4.823 8.421,-7.242 5.918,-5.109 12.021,-10.376 18.204,-15.454 -1.286,-1.503 -2.538,-3.032 -3.76,-4.525 -0.589,-0.72 -1.178,-1.44 -1.77,-2.156 -5.691,4.416 -10.902,8.638 -15.884,12.868 -0.439,0.372 -1.007,0.549 -1.579,0.505 -0.573,-0.049 -1.103,-0.323 -1.472,-0.764 -2.277,-2.715 -4.192,-5.767 -6.043,-8.72 -0.364,-0.581 -0.728,-1.162 -1.096,-1.74 -0.962,0.652 -1.927,1.297 -2.891,1.941 -1.913,1.277 -3.875,2.587 -5.781,3.941 z"
   id="path84" />
			</g>
			<g
   id="g90"
   style="fill:#ffffff">
				<path
   style="fill:#ffffff"
   d="m 78.894,109.3 c -1.115,0 -2.06,-0.857 -2.15,-1.987 C 75.21,88.147 72.871,69.038 70.608,50.556 l 4.279,-0.582 -2.143,0.262 2.15,-0.205 c 2.268,18.525 4.613,37.681 6.154,56.937 0.096,1.188 -0.791,2.229 -1.98,2.324 -0.058,0.006 -0.116,0.008 -0.174,0.008 z"
   id="path88" />
			</g>
			<g
   id="g94"
   style="fill:#ffffff">
				<path
   style="fill:#ffffff"
   d="m 107.36,108.011 c -1.193,0 -2.159,-0.966 -2.159,-2.159 0,-4.917 -0.024,-9.801 -0.049,-14.667 -0.024,-4.84 -0.048,-9.664 -0.048,-14.487 0,-11.71 0.149,-20.727 0.482,-29.238 0.046,-1.193 1.062,-2.104 2.242,-2.073 1.192,0.047 2.12,1.051 2.073,2.242 -0.332,8.453 -0.479,17.418 -0.479,29.069 0,4.816 0.024,9.633 0.048,14.466 0.025,4.873 0.049,9.764 0.049,14.688 0,1.193 -0.967,2.159 -2.159,2.159 z"
   id="path92" />
			</g>
			<g
   id="g98"
   style="fill:#ffffff">
				<path
   style="fill:#ffffff"
   d="m 135.055,107.395 c -0.092,0 -0.186,-0.006 -0.279,-0.018 -1.183,-0.152 -2.018,-1.235 -1.865,-2.418 1.525,-11.821 1.915,-23.89 2.291,-35.563 0.037,-1.192 1.022,-2.132 2.227,-2.088 1.192,0.038 2.127,1.035 2.088,2.227 -0.38,11.774 -0.772,23.949 -2.324,35.976 -0.14,1.09 -1.069,1.884 -2.138,1.884 z"
   id="path96" />
			</g>
			<g
   id="g102"
   style="fill:#ffffff">
				<path
   style="fill:#ffffff"
   d="m 50.437,83.164 c -1.188,0 -2.154,-0.962 -2.159,-2.151 -0.005,-1.193 0.959,-2.163 2.151,-2.167 l 99.615,-0.384 c 1.197,0 2.163,0.961 2.168,2.151 0.005,1.193 -0.959,2.163 -2.151,2.168 0,-0.001 -99.616,0.383 -99.624,0.383 z"
   id="path100" />
			</g>
		</g>
	</g>
</g>
<g
   id="Layer_1">
</g>
</svg>
